<svg width="1641" height="487" viewBox="0 0 1641 487" fill="none" xmlns="http://www.w3.org/2000/svg">
<path fill-rule="evenodd" clip-rule="evenodd" d="M1273.27 1.03535C1271.49 1.55135 1270.02 2.32835 1270.02 2.76235C1270.02 4.26035 1281.55 7.22934 1289.02 7.65834C1294.59 7.97734 1297.02 7.71034 1298.46 6.62634C1300.34 5.21334 1300.31 5.11335 1297.44 3.63335C1294.07 1.88735 1284.15 -0.127658 1279.59 0.00634194C1277.9 0.0563419 1275.06 0.519349 1273.27 1.03535ZM1468.02 1.33035C1468.02 3.93235 1486.14 17.0873 1504 27.4543C1512.17 32.1953 1527.19 38.8643 1529.77 38.8993C1534.04 38.9573 1524.79 27.7023 1514.62 20.4533C1497.08 7.95935 1468.02 -3.96665 1468.02 1.33035ZM1334.83 11.2553C1329.01 12.8963 1327.02 14.4863 1327.02 17.5043C1327.02 22.1493 1338 31.4033 1351.62 38.2383C1364.71 44.8084 1384.59 46.8713 1390.71 42.2973C1396.82 37.7413 1395.94 30.4433 1388.58 24.4053C1376.39 14.4203 1348.13 7.50534 1334.83 11.2553ZM811.245 33.8873C803.988 36.4993 796.964 41.8973 792.678 48.1573C785.561 58.5543 785.958 47.3273 786.255 229.509L786.523 393.416L789.611 399.946C793.494 408.159 797.535 412.788 803.797 416.196C811.138 420.192 817.774 421.331 825.824 419.976C840.141 417.568 852.278 408.356 857.202 396.163L859.523 390.416L860.523 179.516L901.836 237.689C924.558 269.683 945.481 298.144 948.331 300.935C951.18 303.725 955.989 307.225 959.017 308.712C963.706 311.015 965.785 311.413 973.023 311.396C980.434 311.378 982.286 310.994 987.473 308.396C990.746 306.757 996.189 302.716 999.57 299.416C1002.95 296.116 1025.92 267.808 1050.62 236.509L1095.52 179.601L1096.05 285.009C1096.51 378.79 1096.75 390.939 1098.2 395.156C1103.77 411.412 1115.54 420.155 1132.07 420.316C1138.65 420.38 1140.47 419.973 1146.24 417.132C1156.51 412.076 1162.71 403.371 1165.05 390.754C1165.7 387.198 1165.96 329.009 1165.79 223.36L1165.52 61.4163L1163.24 55.7693C1160.01 47.7813 1154.22 41.6313 1146.24 37.7033C1139.96 34.6173 1138.91 34.4163 1129.04 34.4233C1119.49 34.4293 1118.06 34.6813 1113.52 37.1523C1110.77 38.6493 1107.34 40.8963 1105.88 42.1453C1104.43 43.3943 1074.79 82.8913 1040 129.916C1005.22 176.941 976.647 215.554 976.503 215.724C976.359 215.893 948.79 178.993 915.238 133.724C845.092 39.0794 843.531 37.2713 828.523 33.2723C821.782 31.4763 817.526 31.6273 811.245 33.8873ZM28.9653 35.9233C16.6713 38.0063 6.2223 46.4353 2.0103 57.6693C-1.0757 65.8983 -0.549702 79.0703 3.1823 87.0643C6.0723 93.2533 12.0653 99.8523 17.2203 102.519C25.2443 106.67 28.4833 106.892 81.2503 106.904L131.977 106.916L132.523 394.416L134.936 400.409C138.232 408.597 146.453 416.781 154.53 419.917C162.289 422.929 174.173 423.215 181.785 420.573C193.012 416.677 202.702 406.303 204.964 395.757C205.681 392.411 206.023 345.03 206.023 248.867V106.916H254.918C301.354 106.916 304.145 106.813 310.437 104.87C327.392 99.6333 337.531 82.5033 334.218 64.6893C331.317 49.0893 320.336 38.5003 304.344 35.8813C297.362 34.7373 35.7293 34.7783 28.9653 35.9233ZM412.406 37.8403C403.118 40.1323 393.851 47.4953 390.034 55.6163C388.946 57.9313 387.584 62.8843 387.008 66.6213C386.303 71.2013 386.053 125.579 386.242 233.416L386.523 393.416L388.806 399.063C393.261 410.079 402.53 417.587 414.523 419.894C418.884 420.733 446.742 420.946 516.523 420.677C600.709 420.352 613.634 420.102 621.553 418.643C655.692 412.352 681.251 398.013 698.039 375.734C708.369 362.026 715.956 344.471 719.138 326.916C721.333 314.807 720.872 290.257 718.252 279.729C711.013 250.642 694.939 230.716 667.686 217.048L658.332 212.356L662.806 207.886C675.875 194.828 684.332 177.736 687.104 158.774C688.88 146.632 687.781 126.681 684.677 114.71C674.559 75.6853 646.216 49.2433 604.342 39.7623C594.638 37.5653 593.479 37.5364 505.023 37.3054C455.798 37.1764 414.12 37.4173 412.406 37.8403ZM1504.64 39.9533C1494.73 42.9143 1493.84 53.2923 1502.03 70.4163C1513.58 94.5433 1543.56 124.785 1564.02 132.951C1567.05 134.158 1571.93 135.193 1574.88 135.25C1579.8 135.346 1580.5 135.067 1583.52 131.771C1587.82 127.082 1588.67 122.002 1586.56 113.737C1583.76 102.773 1577.1 91.1593 1564.83 75.8263C1547.12 53.7063 1517.57 36.0923 1504.64 39.9533ZM1421.88 42.9093C1405.89 45.7003 1398.66 57.0293 1401.96 74.1373C1405.83 94.1643 1424.56 116.091 1447.52 127.494C1458.59 132.987 1468.77 135.29 1479.02 134.614C1498.49 133.332 1510.05 122.825 1510 106.47C1509.96 90.6793 1500.76 75.4223 1483.55 62.5943C1464.75 48.5723 1438.13 40.0753 1421.88 42.9093ZM590.27 107.737C598.257 110.962 606.195 118.488 610.209 126.643C612.975 132.26 613.502 134.54 613.844 142.372C614.754 163.182 607.013 178.139 592.244 184.105L586.523 186.416L460.023 186.987V104.831L584.523 105.416L590.27 107.737ZM1405.29 131.458C1388.02 136.107 1374.27 150.35 1369.55 168.468C1367.58 176.055 1367.6 188.544 1369.61 196.852C1370.48 200.462 1373.06 207.241 1375.33 211.916C1378.61 218.683 1381.2 222.173 1387.99 229.034C1398 239.147 1406.47 243.767 1419.97 246.479C1445.99 251.709 1468.54 240.809 1479.77 217.568C1496.33 183.31 1474.04 141.76 1433.56 131.436C1426.21 129.561 1412.29 129.572 1405.29 131.458ZM1595.75 133.609C1592.98 134.332 1590.08 141.199 1588.84 149.967C1586.89 163.726 1590.01 184.887 1597.15 206.266C1604.61 228.629 1613.86 245.336 1623.19 253.327C1638.71 266.61 1645.11 242.041 1636.51 202.235C1631.17 177.559 1620.68 153.406 1610.34 141.979C1605.73 136.877 1599.41 132.371 1597.81 133.032C1597.65 133.096 1596.73 133.355 1595.75 133.609ZM1301.36 150.801C1281.37 160.11 1277.51 190.389 1294.04 208.319C1310.23 225.883 1341.47 220.055 1349.4 197.99C1352.05 190.629 1351.36 179.333 1347.8 171.663C1344.3 164.128 1336.48 155.972 1329.29 152.362C1321.62 148.514 1307.92 147.748 1301.36 150.801ZM1235.92 157.186C1231.49 160.143 1229.03 165.211 1229.03 171.35C1229.02 181.042 1234.76 187.982 1242.86 188.094C1251.56 188.214 1257.01 182.257 1257.02 172.626C1257.03 158.765 1245.83 150.568 1235.92 157.186ZM1483.79 241.997C1475.88 243.863 1464.27 249.1 1458.62 253.354C1442.4 265.572 1432.02 287.567 1432.02 309.762C1432.02 321.643 1434.05 330.071 1439.38 340.416C1445.13 351.559 1454.01 360.418 1464.52 365.481C1471.74 368.958 1473.46 369.373 1482.14 369.736C1497.65 370.384 1509.27 365.917 1521.72 354.517C1537.07 340.458 1545.23 321.288 1545.15 299.416C1545.11 287.382 1543.39 280.161 1537.98 269.335C1533.39 260.148 1524.76 250.721 1517.13 246.57C1507.84 241.514 1493.93 239.606 1483.79 241.997ZM1588.69 244.411C1583.56 246.364 1576.21 251.859 1572.42 256.574C1549.57 285.032 1546.14 336.995 1565.6 359.731C1579.28 375.722 1600.06 368.904 1612.74 344.262C1621.1 328.004 1623.55 316.56 1623.42 294.416C1623.32 278.17 1623.19 277.036 1620.29 268.84C1616.67 258.621 1614.98 255.207 1611.43 250.992C1606.03 244.571 1595.94 241.652 1588.69 244.411ZM605.499 256.428C614.72 258.382 621.758 262.064 627.846 268.12C649.692 289.852 645.54 330.269 619.883 345.624C609.284 351.967 609.997 351.916 531.313 351.916H460.023V254.916L529.273 254.933C586.5 254.948 599.734 255.207 605.499 256.428ZM1606.15 373.068C1604.29 373.602 1600.4 376.408 1597.5 379.307C1584.52 392.287 1573.17 429.061 1580.02 435.916C1582.51 438.405 1583.7 438.413 1587.71 435.968C1595.25 431.37 1606.58 411.86 1610.96 395.936C1612.93 388.789 1613.7 376.853 1612.42 373.498C1611.74 371.727 1610.99 371.675 1606.15 373.068ZM1415.31 374.782C1393.14 382.444 1380.47 407.011 1389.35 425.15C1392.55 431.701 1396.29 435.185 1404.02 438.826C1408.8 441.076 1410.84 441.416 1419.58 441.416C1429.17 441.416 1429.97 441.245 1437.18 437.681C1448.77 431.954 1456.35 422.602 1459.56 410.071C1463.12 396.17 1456.21 382.245 1442.52 375.761C1437.46 373.359 1435.28 372.923 1428.52 372.949C1423.49 372.969 1418.59 373.649 1415.31 374.782ZM1576.32 460.212C1572.45 464.407 1565.02 476.085 1565.02 477.97C1565.02 479.279 1566.35 479.153 1568.2 477.666C1570.67 475.688 1580.78 461.7 1581.93 458.666C1583.54 454.438 1581 455.138 1576.32 460.212ZM1367.67 459.119C1356.4 461.485 1350.39 474.357 1357.19 481.591C1360.34 484.95 1368.9 487.258 1375.07 486.41C1387.9 484.645 1394.8 472.541 1387.4 464.767C1385.82 463.104 1383.71 461.301 1382.71 460.759C1379.69 459.123 1371.77 458.259 1367.67 459.119Z" fill="#4F76C9"/>
<path fill-rule="evenodd" clip-rule="evenodd" d="M1468.55 0.713408C1466.3 4.3527 1510.55 32.5213 1526.12 37.3603C1531.44 39.0148 1531.76 38.8681 1530.07 35.5623C1526.31 28.198 1511.19 17.013 1493.05 8.18577C1478.99 1.34106 1469.88 -1.43821 1468.55 0.713408ZM1271.79 1.66531L1269.52 2.63264L1274.17 4.32954C1284.27 8.01052 1297.87 8.68681 1298.92 5.55937C1299.24 4.57582 1294.66 2.48287 1289.88 1.43061C1285.04 0.366772 1274.51 0.50342 1271.79 1.66531ZM1333.43 11.4962C1330.72 12.2821 1326.93 15.4929 1326.94 16.9968C1326.95 18.6729 1330.25 23.4324 1333.11 25.8912C1339.02 30.9657 1346.8 35.6573 1356.66 40.0848C1359.98 41.5756 1370.84 43.9418 1376.38 44.378C1384.6 45.0265 1390.27 43.3257 1392.93 39.4193C1396.18 34.6382 1395.15 31.0537 1388.82 25.1385C1385.3 21.8412 1376.23 16.8555 1370.75 15.205C1358.83 11.6143 1353.32 10.667 1344.71 10.7342C1339.82 10.7728 1334.74 11.1156 1333.43 11.4962ZM1502 41.1564C1497.61 43.6477 1496.16 49.4772 1497.87 57.6976C1502.01 77.5478 1527.93 110.26 1552.19 126.264C1562.7 133.198 1573.04 136.538 1578.73 134.834C1591.27 131.078 1590.48 113.853 1576.78 92.1582C1566.6 76.0238 1556.16 64.6442 1542.33 54.5926C1533.77 48.3701 1531.04 46.7295 1523.86 43.4948C1518.33 41.0035 1516.36 40.5187 1510.73 40.26C1505.73 40.03 1503.6 40.2485 1502 41.1564ZM1425.76 42.8733C1424.27 43.0084 1420.68 43.6785 1417.77 44.3625C1413.21 45.4364 1411.94 46.149 1408.39 49.6161C1405.27 52.6571 1403.98 54.6273 1403.05 57.7625C1399.35 70.239 1404.14 87.1532 1415.29 100.974C1417.39 103.579 1429.52 115.673 1431.86 117.49C1441.2 124.769 1453.95 131.039 1463.58 133.091C1470.32 134.527 1482.97 134.483 1488.65 133.005C1511.06 127.165 1516.7 104.03 1501.34 80.8991C1496.38 73.4406 1484.51 62.6169 1475.13 57.0136C1463.01 49.7728 1447.84 44.3425 1437.2 43.4323C1434.52 43.203 1431.45 42.9274 1430.39 42.8208C1429.33 42.7135 1427.24 42.7375 1425.76 42.8733ZM1406.74 131.428C1401.58 132.607 1394.46 135.885 1389.29 139.464C1386 141.737 1377.89 149.802 1377.89 150.795C1377.89 151.083 1377.15 152.358 1376.25 153.627C1375.34 154.896 1373.43 158.717 1372 162.118C1361.58 186.807 1373.07 220.933 1397.36 237.512C1413.92 248.812 1439.53 250.937 1456.56 242.425C1468.84 236.293 1479.93 221.833 1483.64 207.143C1487.69 191.133 1484.65 175.359 1474.62 160.294C1467.97 150.296 1454.36 139.112 1444.24 135.326C1442.35 134.621 1440.11 133.745 1439.27 133.38C1432.95 130.664 1414.84 129.577 1406.74 131.428ZM1594.62 135.539C1593.94 136.282 1592.62 138.627 1591.68 140.75C1590.21 144.046 1589.91 146.36 1589.62 156.576C1589.26 168.908 1589.73 173.809 1592.54 187.071C1594.19 194.851 1599.19 211.887 1600.24 213.32C1600.55 213.744 1601.24 215.481 1601.78 217.18C1602.86 220.609 1606.44 228.785 1608.76 233.116C1609.59 234.662 1610.71 236.75 1611.23 237.755C1612.37 239.905 1615.6 244.284 1619.85 249.428C1623.04 253.288 1629.39 257.711 1631.74 257.711C1634.52 257.711 1637.92 253.004 1639.27 247.286C1641.72 236.926 1639.9 214.254 1635.12 195.536C1626.8 162.979 1609.73 134.188 1598.75 134.188C1596.96 134.188 1595.37 134.707 1594.62 135.539ZM1306.01 149.526C1303.03 150.164 1297.06 153.406 1293.95 156.087C1285.26 163.556 1281.53 179.089 1285.2 192.49C1286.95 198.9 1290.12 204.76 1293.93 208.633C1296.38 211.122 1303.65 216.019 1304.91 216.026C1305.35 216.029 1306.75 216.605 1308.02 217.307C1309.69 218.226 1312.4 218.601 1317.67 218.647C1323.94 218.701 1325.79 218.401 1330.41 216.59C1344 211.257 1351.51 199.798 1350.69 185.652C1350.02 174.18 1345.43 165.173 1336.5 157.8C1329.76 152.246 1323.21 149.628 1315.04 149.234C1311.6 149.068 1307.54 149.2 1306.01 149.526ZM1238.93 155.934C1235.08 157.013 1230.78 161.465 1229.64 165.55C1228.39 169.99 1229.05 178.079 1230.92 181.244C1233.29 185.271 1238.49 188.229 1243.19 188.229C1254.16 188.229 1260.33 174.998 1254.66 163.624C1251.46 157.214 1245.23 154.165 1238.93 155.934ZM1487.36 242.332C1482.43 243.055 1474.41 245.224 1473.23 246.155C1472.81 246.49 1470.91 247.387 1469 248.148C1446 257.337 1429.31 289.445 1432.73 317.928C1433.79 326.759 1435.54 332.352 1439.99 341.161C1443.35 347.818 1444.11 348.826 1451.48 356.359C1460 365.074 1472.76 370.425 1485.02 370.425C1500.98 370.425 1517.03 362.126 1528.6 347.885C1547.91 324.135 1550.78 289.952 1535.55 265.163C1528.1 253.028 1516.47 244.884 1503.43 242.665C1495.98 241.396 1494.02 241.356 1487.36 242.332ZM1589.81 244.843C1575.68 250.399 1564.22 265.667 1557.54 287.819C1554.77 297.012 1553.59 306.506 1553.67 319.086C1553.82 342.687 1561.29 359.974 1574.28 366.754C1579.17 369.31 1587.7 369.141 1593.29 366.378C1603.59 361.287 1612.14 349.758 1618.34 332.596C1623.08 319.499 1625.19 299.575 1623.48 283.959C1621.78 268.371 1616.34 255.649 1608.35 248.62C1603.31 244.18 1595.52 242.594 1589.81 244.843ZM1421.05 374.288C1415.03 375.242 1406.09 379.685 1400.91 384.303C1391.41 392.766 1386.84 402.32 1386.85 413.658C1386.85 419.479 1387.13 420.806 1389.36 425.404C1394.51 436.037 1405.42 442.174 1419.19 442.193C1437.35 442.218 1452.45 431.256 1458.66 413.555C1463.7 399.182 1457.25 383.894 1443.22 376.957C1438.45 374.6 1436.58 374.11 1431.46 373.879C1428.11 373.728 1423.43 373.912 1421.05 374.288ZM1605.25 374.584C1602.56 375.757 1594.06 383.312 1594.06 384.532C1594.06 384.986 1593.57 385.907 1592.97 386.577C1591.48 388.25 1586.1 399.07 1583.73 405.166C1581.7 410.401 1577.84 426.404 1577.84 429.619C1577.84 430.64 1578.54 432.852 1579.4 434.534C1580.73 437.144 1581.33 437.59 1583.46 437.588C1589.37 437.581 1597.01 429.187 1604.18 414.816C1607.6 407.945 1611.49 396.846 1612.54 390.935C1613.43 385.921 1613.63 376.669 1612.89 374.735C1612.31 373.238 1608.51 373.163 1605.25 374.584ZM1577.32 460.558C1571.16 467.899 1564.69 478.732 1565.8 479.844C1566.43 480.475 1571.77 474.757 1576.41 468.472C1581.25 461.928 1582.47 459.837 1582.47 458.1C1582.47 455.88 1580.43 456.855 1577.32 460.558ZM1365.15 460.86C1362.06 461.994 1357.12 466.714 1355.8 469.798C1354.2 473.52 1354.45 478.263 1356.39 480.994C1358.92 484.537 1365.21 487 1371.75 487C1374.71 487 1377.74 486.704 1378.48 486.341C1379.22 485.979 1381.17 485.03 1382.82 484.232C1386.99 482.217 1389.73 477.849 1389.8 473.108C1389.87 468.731 1388.3 466.184 1383.43 462.737C1380.62 460.749 1379.46 460.448 1373.85 460.243C1370.34 460.115 1366.43 460.393 1365.15 460.86Z" fill="#67B240"/>
<path fill-rule="evenodd" clip-rule="evenodd" d="M1468.55 0.713408C1466.3 4.3527 1510.55 32.5213 1526.12 37.3603C1531.44 39.0148 1531.76 38.8681 1530.07 35.5623C1526.31 28.198 1511.19 17.013 1493.05 8.18577C1478.99 1.34106 1469.88 -1.43821 1468.55 0.713408ZM1502 41.1564C1497.61 43.6477 1496.16 49.4772 1497.87 57.6976C1502.01 77.5478 1527.93 110.26 1552.19 126.264C1562.7 133.198 1573.04 136.538 1578.73 134.834C1591.27 131.078 1590.48 113.853 1576.78 92.1582C1566.6 76.0238 1556.16 64.6442 1542.33 54.5926C1533.77 48.3701 1531.04 46.7295 1523.86 43.4948C1518.33 41.0035 1516.36 40.5187 1510.73 40.26C1505.73 40.03 1503.6 40.2485 1502 41.1564ZM1406.74 131.428C1401.58 132.607 1394.46 135.885 1389.29 139.464C1386 141.737 1377.89 149.802 1377.89 150.795C1377.89 151.083 1377.15 152.358 1376.25 153.627C1375.34 154.896 1373.43 158.717 1372 162.118C1361.58 186.807 1373.07 220.933 1397.36 237.512C1413.92 248.812 1439.53 250.937 1456.56 242.425C1468.84 236.293 1479.93 221.833 1483.64 207.143C1487.69 191.133 1484.65 175.359 1474.62 160.294C1467.97 150.296 1454.36 139.112 1444.24 135.326C1442.35 134.621 1440.11 133.745 1439.27 133.38C1432.95 130.664 1414.84 129.577 1406.74 131.428ZM1306.01 149.526C1303.03 150.164 1297.06 153.406 1293.95 156.087C1285.26 163.556 1281.53 179.089 1285.2 192.49C1286.95 198.9 1290.12 204.76 1293.93 208.633C1296.38 211.122 1303.65 216.019 1304.91 216.026C1305.35 216.029 1306.75 216.605 1308.02 217.307C1309.69 218.226 1312.4 218.601 1317.67 218.647C1323.94 218.701 1325.79 218.401 1330.41 216.59C1344 211.257 1351.51 199.798 1350.69 185.652C1350.02 174.18 1345.43 165.173 1336.5 157.8C1329.76 152.246 1323.21 149.628 1315.04 149.234C1311.6 149.068 1307.54 149.2 1306.01 149.526ZM1238.93 155.934C1235.08 157.013 1230.78 161.465 1229.64 165.55C1228.39 169.99 1229.05 178.079 1230.92 181.244C1233.29 185.271 1238.49 188.229 1243.19 188.229C1254.16 188.229 1260.33 174.998 1254.66 163.624C1251.46 157.214 1245.23 154.165 1238.93 155.934ZM1589.81 244.843C1575.68 250.399 1564.22 265.667 1557.54 287.819C1554.77 297.012 1553.59 306.506 1553.67 319.086C1553.82 342.687 1561.29 359.974 1574.28 366.754C1579.17 369.31 1587.7 369.141 1593.29 366.378C1603.59 361.287 1612.14 349.758 1618.34 332.596C1623.08 319.499 1625.19 299.575 1623.48 283.959C1621.78 268.371 1616.34 255.649 1608.35 248.62C1603.31 244.18 1595.52 242.594 1589.81 244.843ZM1605.25 374.584C1602.56 375.757 1594.06 383.312 1594.06 384.532C1594.06 384.986 1593.57 385.907 1592.97 386.577C1591.48 388.25 1586.1 399.07 1583.73 405.166C1581.7 410.401 1577.84 426.404 1577.84 429.619C1577.84 430.64 1578.54 432.852 1579.4 434.534C1580.73 437.144 1581.33 437.59 1583.46 437.588C1589.37 437.581 1597.01 429.187 1604.18 414.816C1607.6 407.945 1611.49 396.846 1612.54 390.935C1613.43 385.921 1613.63 376.669 1612.89 374.735C1612.31 373.238 1608.51 373.163 1605.25 374.584ZM1577.32 460.558C1571.16 467.899 1564.69 478.732 1565.8 479.844C1566.43 480.475 1571.77 474.757 1576.41 468.472C1581.25 461.928 1582.47 459.837 1582.47 458.1C1582.47 455.88 1580.43 456.855 1577.32 460.558Z" fill="#4F79C3"/>
</svg>
