<svg width="4055" height="492" viewBox="0 0 4055 492" fill="none" xmlns="http://www.w3.org/2000/svg">
<path d="M1919.66 106.849L1909.14 87.6696L1919.66 68.4905H1929.41L1918.56 87.6696L1929.41 106.849H1919.66ZM1939.39 106.849L1928.97 87.6696L1939.39 68.4905H1949.25L1938.4 87.6696L1949.25 106.849H1939.39ZM1997.79 120.767C1990.71 120.767 1984.24 119.123 1978.39 115.835C1972.55 112.475 1967.91 107.835 1964.48 101.917C1961.12 95.9257 1959.43 89.2039 1959.43 81.7515C1959.43 74.2991 1961.12 67.6138 1964.48 61.6957C1967.91 55.7045 1972.55 51.065 1978.39 47.7772C1984.24 44.4163 1990.71 42.7358 1997.79 42.7358C2004.95 42.7358 2011.46 44.4163 2017.3 47.7772C2023.15 51.065 2027.75 55.668 2031.11 61.5861C2034.47 67.5042 2036.15 74.226 2036.15 81.7515C2036.15 89.277 2034.47 95.9988 2031.11 101.917C2027.75 107.835 2023.15 112.475 2017.3 115.835C2011.46 119.123 2004.95 120.767 1997.79 120.767ZM1997.79 112.109C2003.13 112.109 2007.91 110.867 2012.15 108.383C2016.46 105.899 2019.82 102.355 2022.23 97.7523C2024.72 93.1493 2025.96 87.8157 2025.96 81.7515C2025.96 75.6142 2024.72 70.2806 2022.23 65.7507C2019.82 61.1477 2016.5 57.6041 2012.26 55.12C2008.02 52.6359 2003.2 51.3938 1997.79 51.3938C1992.39 51.3938 1987.56 52.6359 1983.33 55.12C1979.09 57.6041 1975.73 61.1477 1973.24 65.7507C1970.83 70.2806 1969.63 75.6142 1969.63 81.7515C1969.63 87.8157 1970.83 93.1493 1973.24 97.7523C1975.73 102.355 1979.09 105.899 1983.33 108.383C1987.64 110.867 1992.46 112.109 1997.79 112.109ZM2054.36 32.7627L2053.04 54.572H2046.14L2044.71 32.7627H2054.36ZM2075.2 111.342H2112.46V120H2063.36V112.109L2100.41 52.2705H2063.8V43.6126H2112.24V51.5034L2075.2 111.342ZM2164.3 80.6555C2167.08 81.0939 2169.6 82.2264 2171.87 84.053C2174.2 85.8795 2176.03 88.1445 2177.34 90.8478C2178.73 93.5512 2179.43 96.4372 2179.43 99.5058C2179.43 103.378 2178.44 106.885 2176.47 110.027C2174.5 113.096 2171.61 115.543 2167.81 117.37C2164.08 119.123 2159.66 120 2154.55 120H2126.05V43.6126H2153.45C2158.64 43.6126 2163.06 44.4893 2166.71 46.2428C2170.37 47.9233 2173.11 50.2248 2174.93 53.1473C2176.76 56.0698 2177.67 59.3577 2177.67 63.0108C2177.67 67.5407 2176.43 71.3035 2173.95 74.2991C2171.54 77.2216 2168.32 79.3404 2164.3 80.6555ZM2136.03 76.6005H2152.8C2157.47 76.6005 2161.09 75.5046 2163.65 73.3127C2166.2 71.1208 2167.48 68.0887 2167.48 64.2163C2167.48 60.344 2166.2 57.3119 2163.65 55.12C2161.09 52.9281 2157.4 51.8322 2152.58 51.8322H2136.03V76.6005ZM2153.67 111.78C2158.64 111.78 2162.51 110.611 2165.29 108.273C2168.07 105.935 2169.45 102.684 2169.45 98.5195C2169.45 94.2818 2167.99 90.9574 2165.07 88.5464C2162.15 86.0622 2158.24 84.8201 2153.34 84.8201H2136.03V111.78H2153.67ZM2203.24 51.7226V77.2581H2231.08V85.4777H2203.24V111.78H2234.36V120H2193.27V43.503H2234.36V51.7226H2203.24ZM2290.88 120L2259.43 85.1489V120H2249.46V43.6126H2259.43V79.0116L2290.99 43.6126H2303.6L2268.96 81.8611L2303.92 120H2290.88ZM2325.04 43.6126V120H2315.06V43.6126H2325.04ZM2366.25 120.767C2361.21 120.767 2356.68 119.89 2352.66 118.137C2348.72 116.31 2345.61 113.826 2343.35 110.684C2341.08 107.47 2339.91 103.78 2339.84 99.6154H2350.47C2350.84 103.195 2352.3 106.228 2354.86 108.712C2357.49 111.123 2361.29 112.328 2366.25 112.328C2371 112.328 2374.73 111.159 2377.43 108.821C2380.21 106.41 2381.6 103.342 2381.6 99.6154C2381.6 96.6929 2380.79 94.3183 2379.19 92.4918C2377.58 90.6652 2375.57 89.277 2373.16 88.3272C2370.75 87.3773 2367.5 86.3545 2363.4 85.2585C2358.36 83.9434 2354.31 82.6282 2351.24 81.3131C2348.24 79.998 2345.65 77.9522 2343.46 75.1758C2341.34 72.3263 2340.28 68.5271 2340.28 63.778C2340.28 59.6134 2341.34 55.9237 2343.46 52.7089C2345.58 49.4941 2348.54 47.01 2352.33 45.2565C2356.21 43.503 2360.63 42.6262 2365.6 42.6262C2372.76 42.6262 2378.6 44.4163 2383.13 47.9963C2387.73 51.5764 2390.33 56.3255 2390.91 62.2436H2379.95C2379.59 59.3211 2378.05 56.7639 2375.35 54.572C2372.65 52.3071 2369.07 51.1746 2364.61 51.1746C2360.44 51.1746 2357.05 52.2705 2354.42 54.4624C2351.79 56.5813 2350.47 59.5768 2350.47 63.4492C2350.47 66.2256 2351.24 68.4905 2352.77 70.2441C2354.38 71.9976 2356.32 73.3492 2358.58 74.2991C2360.92 75.1758 2364.17 76.1987 2368.34 77.3677C2373.38 78.7559 2377.43 80.1441 2380.5 81.5323C2383.57 82.8474 2386.2 84.9297 2388.39 87.7792C2390.58 90.5556 2391.68 94.3549 2391.68 99.177C2391.68 102.903 2390.69 106.41 2388.72 109.698C2386.75 112.986 2383.83 115.653 2379.95 117.699C2376.08 119.744 2371.51 120.767 2366.25 120.767ZM2453.37 43.6126V51.7226H2432.55V120H2422.58V51.7226H2401.64V43.6126H2453.37ZM2500.28 120.767C2493.19 120.767 2486.73 119.123 2480.88 115.835C2475.04 112.475 2470.4 107.835 2466.96 101.917C2463.6 95.9257 2461.92 89.2039 2461.92 81.7515C2461.92 74.2991 2463.6 67.6138 2466.96 61.6957C2470.4 55.7045 2475.04 51.065 2480.88 47.7772C2486.73 44.4163 2493.19 42.7358 2500.28 42.7358C2507.44 42.7358 2513.94 44.4163 2519.79 47.7772C2525.63 51.065 2530.24 55.668 2533.6 61.5861C2536.96 67.5042 2538.64 74.226 2538.64 81.7515C2538.64 89.277 2536.96 95.9988 2533.6 101.917C2530.24 107.835 2525.63 112.475 2519.79 115.835C2513.94 119.123 2507.44 120.767 2500.28 120.767ZM2500.28 112.109C2505.61 112.109 2510.4 110.867 2514.64 108.383C2518.95 105.899 2522.31 102.355 2524.72 97.7523C2527.2 93.1493 2528.45 87.8157 2528.45 81.7515C2528.45 75.6142 2527.2 70.2806 2524.72 65.7507C2522.31 61.1477 2518.98 57.6041 2514.75 55.12C2510.51 52.6359 2505.69 51.3938 2500.28 51.3938C2494.87 51.3938 2490.05 52.6359 2485.81 55.12C2481.58 57.6041 2478.21 61.1477 2475.73 65.7507C2473.32 70.2806 2472.11 75.6142 2472.11 81.7515C2472.11 87.8157 2473.32 93.1493 2475.73 97.7523C2478.21 102.355 2481.58 105.899 2485.81 108.383C2490.12 110.867 2494.95 112.109 2500.28 112.109ZM2611.86 120H2601.89L2561.78 59.175V120H2551.8V43.503H2561.78L2601.89 104.218V43.503H2611.86V120ZM2705.1 43.6126V51.7226H2684.27V120H2674.3V51.7226H2653.37V43.6126H2705.1ZM2727.35 51.7226V77.2581H2755.18V85.4777H2727.35V111.78H2758.47V120H2717.37V43.503H2758.47V51.7226H2727.35ZM2783.53 111.89H2810.28V120H2773.56V43.6126H2783.53V111.89ZM2830.84 51.7226V77.2581H2858.68V85.4777H2830.84V111.78H2861.97V120H2820.87V43.503H2861.97V51.7226H2830.84ZM2918.48 120L2887.03 85.1489V120H2877.06V43.6126H2887.03V79.0116L2918.59 43.6126H2931.2L2896.56 81.8611L2931.52 120H2918.48ZM2977.29 120.767C2970.21 120.767 2963.74 119.123 2957.9 115.835C2952.05 112.475 2947.41 107.835 2943.98 101.917C2940.62 95.9257 2938.94 89.2039 2938.94 81.7515C2938.94 74.2991 2940.62 67.6138 2943.98 61.6957C2947.41 55.7045 2952.05 51.065 2957.9 47.7772C2963.74 44.4163 2970.21 42.7358 2977.29 42.7358C2984.45 42.7358 2990.96 44.4163 2996.8 47.7772C3002.65 51.065 3007.25 55.668 3010.61 61.5861C3013.97 67.5042 3015.65 74.226 3015.65 81.7515C3015.65 89.277 3013.97 95.9988 3010.61 101.917C3007.25 107.835 3002.65 112.475 2996.8 115.835C2990.96 119.123 2984.45 120.767 2977.29 120.767ZM2977.29 112.109C2982.63 112.109 2987.41 110.867 2991.65 108.383C2995.96 105.899 2999.32 102.355 3001.73 97.7523C3004.22 93.1493 3005.46 87.8157 3005.46 81.7515C3005.46 75.6142 3004.22 70.2806 3001.73 65.7507C2999.32 61.1477 2996 57.6041 2991.76 55.12C2987.52 52.6359 2982.7 51.3938 2977.29 51.3938C2971.89 51.3938 2967.07 52.6359 2962.83 55.12C2958.59 57.6041 2955.23 61.1477 2952.75 65.7507C2950.33 70.2806 2949.13 75.6142 2949.13 81.7515C2949.13 87.8157 2950.33 93.1493 2952.75 97.7523C2955.23 102.355 2958.59 105.899 2962.83 108.383C2967.14 110.867 2971.96 112.109 2977.29 112.109ZM3106.3 44.1605V120H3096.33V63.4492L3071.12 120H3064.11L3038.79 63.3396V120H3028.82V44.1605H3039.56L3067.62 106.849L3095.67 44.1605H3106.3ZM3200.7 44.1605V120H3190.73V63.4492L3165.52 120H3158.51L3133.19 63.3396V120H3123.22V44.1605H3133.96L3162.01 106.849L3190.07 44.1605H3200.7ZM3227.37 43.6126V91.9438C3227.37 98.7386 3229.01 103.78 3232.3 107.068C3235.66 110.356 3240.3 112 3246.22 112C3252.06 112 3256.63 110.356 3259.92 107.068C3263.28 103.78 3264.96 98.7386 3264.96 91.9438V43.6126H3274.93V91.8342C3274.93 98.1907 3273.65 103.561 3271.09 107.945C3268.54 112.255 3265.07 115.47 3260.68 117.589C3256.37 119.708 3251.51 120.767 3246.11 120.767C3240.7 120.767 3235.81 119.708 3231.42 117.589C3227.11 115.47 3223.68 112.255 3221.12 107.945C3218.64 103.561 3217.39 98.1907 3217.39 91.8342V43.6126H3227.37ZM3351.63 120H3341.65L3301.54 59.175V120H3291.57V43.503H3301.54L3341.65 104.218V43.503H3351.63V120ZM3378.6 43.6126V120H3368.63V43.6126H3378.6ZM3437.02 120L3405.57 85.1489V120H3395.6V43.6126H3405.57V79.0116L3437.13 43.6126H3449.74L3415.1 81.8611L3450.07 120H3437.02ZM3506.36 103.013H3473.04L3466.9 120H3456.38L3484 44.0509H3495.51L3523.02 120H3512.49L3506.36 103.013ZM3503.51 94.9028L3489.7 56.3255L3475.89 94.9028H3503.51ZM3582.07 43.6126V51.7226H3561.24V120H3551.27V51.7226H3530.34V43.6126H3582.07ZM3618.56 120.767C3613.52 120.767 3608.99 119.89 3604.97 118.137C3601.03 116.31 3597.92 113.826 3595.66 110.684C3593.39 107.47 3592.23 103.78 3592.15 99.6154H3602.78C3603.15 103.195 3604.61 106.228 3607.17 108.712C3609.8 111.123 3613.6 112.328 3618.56 112.328C3623.31 112.328 3627.04 111.159 3629.74 108.821C3632.52 106.41 3633.91 103.342 3633.91 99.6154C3633.91 96.6929 3633.1 94.3183 3631.5 92.4918C3629.89 90.6652 3627.88 89.277 3625.47 88.3272C3623.06 87.3773 3619.81 86.3545 3615.71 85.2585C3610.67 83.9434 3606.62 82.6282 3603.55 81.3131C3600.55 79.998 3597.96 77.9522 3595.77 75.1758C3593.65 72.3263 3592.59 68.5271 3592.59 63.778C3592.59 59.6134 3593.65 55.9237 3595.77 52.7089C3597.89 49.4941 3600.85 47.01 3604.65 45.2565C3608.52 43.503 3612.94 42.6262 3617.91 42.6262C3625.07 42.6262 3630.91 44.4163 3635.44 47.9963C3640.04 51.5764 3642.64 56.3255 3643.22 62.2436H3632.26C3631.9 59.3211 3630.36 56.7639 3627.66 54.572C3624.96 52.3071 3621.38 51.1746 3616.92 51.1746C3612.76 51.1746 3609.36 52.2705 3606.73 54.4624C3604.1 56.5813 3602.78 59.5768 3602.78 63.4492C3602.78 66.2256 3603.55 68.4905 3605.08 70.2441C3606.69 71.9976 3608.63 73.3492 3610.89 74.2991C3613.23 75.1758 3616.48 76.1987 3620.65 77.3677C3625.69 78.7559 3629.74 80.1441 3632.81 81.5323C3635.88 82.8474 3638.51 84.9297 3640.7 87.7792C3642.89 90.5556 3643.99 94.3549 3643.99 99.177C3643.99 102.903 3643 106.41 3641.03 109.698C3639.06 112.986 3636.14 115.653 3632.26 117.699C3628.39 119.744 3623.82 120.767 3618.56 120.767ZM3668.64 43.6126V120H3658.67V43.6126H3668.64ZM3739.12 43.6126L3714.24 91.1766V120H3704.27V91.1766L3679.28 43.6126H3690.35L3709.2 82.2995L3728.05 43.6126H3739.12ZM3794.79 103.013H3761.47L3755.34 120H3744.82L3772.43 44.0509H3783.94L3811.45 120H3800.93L3794.79 103.013ZM3791.94 94.9028L3778.13 56.3255L3764.32 94.9028H3791.94ZM1959.66 207.613V215.723H1938.84V284H1928.86V215.723H1907.93V207.613H1959.66ZM2017.09 267.013H1983.77L1977.64 284H1967.12L1994.73 208.051H2006.24L2033.75 284H2023.23L2017.09 267.013ZM2014.24 258.903L2000.43 220.326L1986.62 258.903H2014.24ZM2086.01 284L2067.81 252.766H2055.76V284H2045.79V207.613H2070.44C2076.22 207.613 2081.07 208.599 2085.02 210.572C2089.04 212.544 2092.03 215.211 2094.01 218.572C2095.98 221.933 2096.97 225.769 2096.97 230.079C2096.97 235.34 2095.43 239.98 2092.36 243.998C2089.37 248.016 2084.84 250.683 2078.77 251.998L2097.95 284H2086.01ZM2055.76 244.765H2070.44C2075.85 244.765 2079.91 243.45 2082.61 240.82C2085.31 238.116 2086.66 234.536 2086.66 230.079C2086.66 225.55 2085.31 222.043 2082.61 219.558C2079.98 217.074 2075.92 215.832 2070.44 215.832H2055.76V244.765ZM2189.95 208.161V284H2179.97V227.449L2154.77 284H2147.75L2122.44 227.34V284H2112.46V208.161H2123.2L2151.26 270.849L2179.32 208.161H2189.95ZM2241.49 284.767C2234.4 284.767 2227.94 283.123 2222.09 279.835C2216.25 276.475 2211.61 271.835 2208.17 265.917C2204.81 259.926 2203.13 253.204 2203.13 245.751C2203.13 238.299 2204.81 231.614 2208.17 225.696C2211.61 219.705 2216.25 215.065 2222.09 211.777C2227.94 208.416 2234.4 206.736 2241.49 206.736C2248.65 206.736 2255.15 208.416 2261 211.777C2266.84 215.065 2271.45 219.668 2274.81 225.586C2278.17 231.504 2279.85 238.226 2279.85 245.751C2279.85 253.277 2278.17 259.999 2274.81 265.917C2271.45 271.835 2266.84 276.475 2261 279.835C2255.15 283.123 2248.65 284.767 2241.49 284.767ZM2241.49 276.109C2246.82 276.109 2251.61 274.867 2255.85 272.383C2260.16 269.899 2263.52 266.355 2265.93 261.752C2268.41 257.149 2269.66 251.816 2269.66 245.751C2269.66 239.614 2268.41 234.281 2265.93 229.751C2263.52 225.148 2260.2 221.604 2255.96 219.12C2251.72 216.636 2246.9 215.394 2241.49 215.394C2236.08 215.394 2231.26 216.636 2227.02 219.12C2222.79 221.604 2219.43 225.148 2216.94 229.751C2214.53 234.281 2213.33 239.614 2213.33 245.751C2213.33 251.816 2214.53 257.149 2216.94 261.752C2219.43 266.355 2222.79 269.899 2227.02 272.383C2231.34 274.867 2236.16 276.109 2241.49 276.109ZM2354.28 298.466L2339.04 283.233C2335.32 284.256 2331.52 284.767 2327.65 284.767C2320.56 284.767 2314.09 283.123 2308.25 279.835C2302.4 276.475 2297.76 271.835 2294.33 265.917C2290.97 259.926 2289.29 253.204 2289.29 245.751C2289.29 238.299 2290.97 231.614 2294.33 225.696C2297.76 219.705 2302.4 215.065 2308.25 211.777C2314.09 208.416 2320.56 206.736 2327.65 206.736C2334.81 206.736 2341.31 208.416 2347.15 211.777C2353 215.065 2357.6 219.668 2360.96 225.586C2364.32 231.504 2366.01 238.226 2366.01 245.751C2366.01 253.058 2364.4 259.633 2361.18 265.479C2357.97 271.324 2353.55 275.927 2347.92 279.287L2367.21 298.466H2354.28ZM2299.48 245.751C2299.48 251.816 2300.69 257.149 2303.1 261.752C2305.58 266.355 2308.94 269.899 2313.18 272.383C2317.49 274.867 2322.31 276.109 2327.65 276.109C2332.98 276.109 2337.77 274.867 2342 272.383C2346.31 269.899 2349.68 266.355 2352.09 261.752C2354.57 257.149 2355.81 251.816 2355.81 245.751C2355.81 239.614 2354.57 234.281 2352.09 229.751C2349.68 225.148 2346.35 221.604 2342.11 219.12C2337.88 216.636 2333.05 215.394 2327.65 215.394C2322.24 215.394 2317.42 216.636 2313.18 219.12C2308.94 221.604 2305.58 225.148 2303.1 229.751C2300.69 234.281 2299.48 239.614 2299.48 245.751ZM2389.36 275.89H2416.1V284H2379.39V207.613H2389.36V275.89ZM2471.84 267.013H2438.53L2432.39 284H2421.87L2449.49 208.051H2460.99L2488.5 284H2477.98L2471.84 267.013ZM2468.99 258.903L2455.19 220.326L2441.38 258.903H2468.99ZM2540.76 284L2522.57 252.766H2510.51V284H2500.54V207.613H2525.2C2530.97 207.613 2535.83 208.599 2539.77 210.572C2543.79 212.544 2546.79 215.211 2548.76 218.572C2550.73 221.933 2551.72 225.769 2551.72 230.079C2551.72 235.34 2550.18 239.98 2547.12 243.998C2544.12 248.016 2539.59 250.683 2533.53 251.998L2552.71 284H2540.76ZM2510.51 244.765H2525.2C2530.6 244.765 2534.66 243.45 2537.36 240.82C2540.07 238.116 2541.42 234.536 2541.42 230.079C2541.42 225.55 2540.07 222.043 2537.36 219.558C2534.73 217.074 2530.68 215.832 2525.2 215.832H2510.51V244.765ZM2577.19 207.613V284H2567.22V207.613H2577.19ZM2654.24 284H2644.27L2604.16 223.175V284H2594.19V207.503H2604.16L2644.27 268.218V207.503H2654.24V284ZM2681.22 207.613V284H2671.24V207.613H2681.22ZM2765.68 244.656C2768.46 245.094 2770.98 246.226 2773.24 248.053C2775.58 249.88 2777.41 252.145 2778.72 254.848C2780.11 257.551 2780.81 260.437 2780.81 263.506C2780.81 267.378 2779.82 270.885 2777.85 274.027C2775.87 277.096 2772.99 279.543 2769.19 281.37C2765.46 283.123 2761.04 284 2755.93 284H2727.43V207.613H2754.83C2760.02 207.613 2764.44 208.489 2768.09 210.243C2771.75 211.923 2774.49 214.225 2776.31 217.147C2778.14 220.07 2779.05 223.358 2779.05 227.011C2779.05 231.541 2777.81 235.303 2775.33 238.299C2772.92 241.222 2769.7 243.34 2765.68 244.656ZM2737.41 240.601H2754.17C2758.85 240.601 2762.47 239.505 2765.02 237.313C2767.58 235.121 2768.86 232.089 2768.86 228.216C2768.86 224.344 2767.58 221.312 2765.02 219.12C2762.47 216.928 2758.78 215.832 2753.96 215.832H2737.41V240.601ZM2755.05 275.78C2760.02 275.78 2763.89 274.611 2766.67 272.273C2769.44 269.935 2770.83 266.684 2770.83 262.519C2770.83 258.282 2769.37 254.957 2766.45 252.546C2763.53 250.062 2759.62 248.82 2754.72 248.82H2737.41V275.78H2755.05ZM2829.28 284.767C2822.19 284.767 2815.72 283.123 2809.88 279.835C2804.03 276.475 2799.39 271.835 2795.96 265.917C2792.6 259.926 2790.92 253.204 2790.92 245.751C2790.92 238.299 2792.6 231.614 2795.96 225.696C2799.39 219.705 2804.03 215.065 2809.88 211.777C2815.72 208.416 2822.19 206.736 2829.28 206.736C2836.44 206.736 2842.94 208.416 2848.79 211.777C2854.63 215.065 2859.23 219.668 2862.59 225.586C2865.96 231.504 2867.64 238.226 2867.64 245.751C2867.64 253.277 2865.96 259.999 2862.59 265.917C2859.23 271.835 2854.63 276.475 2848.79 279.835C2842.94 283.123 2836.44 284.767 2829.28 284.767ZM2829.28 276.109C2834.61 276.109 2839.4 274.867 2843.63 272.383C2847.95 269.899 2851.31 266.355 2853.72 261.752C2856.2 257.149 2857.44 251.816 2857.44 245.751C2857.44 239.614 2856.2 234.281 2853.72 229.751C2851.31 225.148 2847.98 221.604 2843.74 219.12C2839.51 216.636 2834.68 215.394 2829.28 215.394C2823.87 215.394 2819.05 216.636 2814.81 219.12C2810.57 221.604 2807.21 225.148 2804.73 229.751C2802.32 234.281 2801.11 239.614 2801.11 245.751C2801.11 251.816 2802.32 257.149 2804.73 261.752C2807.21 266.355 2810.57 269.899 2814.81 272.383C2819.12 274.867 2823.94 276.109 2829.28 276.109ZM2905.02 284.767C2899.98 284.767 2895.45 283.89 2891.43 282.137C2887.49 280.31 2884.38 277.826 2882.12 274.684C2879.85 271.47 2878.68 267.78 2878.61 263.615H2889.24C2889.61 267.195 2891.07 270.228 2893.62 272.712C2896.25 275.123 2900.05 276.328 2905.02 276.328C2909.77 276.328 2913.5 275.159 2916.2 272.821C2918.98 270.41 2920.37 267.342 2920.37 263.615C2920.37 260.693 2919.56 258.318 2917.95 256.492C2916.35 254.665 2914.34 253.277 2911.93 252.327C2909.52 251.377 2906.26 250.354 2902.17 249.259C2897.13 247.943 2893.08 246.628 2890.01 245.313C2887.01 243.998 2884.42 241.952 2882.23 239.176C2880.11 236.326 2879.05 232.527 2879.05 227.778C2879.05 223.613 2880.11 219.924 2882.23 216.709C2884.35 213.494 2887.3 211.01 2891.1 209.256C2894.98 207.503 2899.4 206.626 2904.36 206.626C2911.52 206.626 2917.37 208.416 2921.9 211.996C2926.5 215.576 2929.1 220.326 2929.68 226.244H2918.72C2918.36 223.321 2916.82 220.764 2914.12 218.572C2911.42 216.307 2907.84 215.175 2903.38 215.175C2899.21 215.175 2895.82 216.271 2893.19 218.462C2890.56 220.581 2889.24 223.577 2889.24 227.449C2889.24 230.226 2890.01 232.491 2891.54 234.244C2893.15 235.998 2895.09 237.349 2897.35 238.299C2899.69 239.176 2902.94 240.199 2907.1 241.368C2912.15 242.756 2916.2 244.144 2919.27 245.532C2922.34 246.847 2924.97 248.93 2927.16 251.779C2929.35 254.556 2930.45 258.355 2930.45 263.177C2930.45 266.903 2929.46 270.41 2927.49 273.698C2925.52 276.986 2922.59 279.653 2918.72 281.699C2914.85 283.744 2910.28 284.767 2905.02 284.767ZM3003.98 207.613V284H2994V249.368H2955.1V284H2945.12V207.613H2955.1V241.149H2994V207.613H3003.98ZM3082.27 298.466L3067.04 283.233C3063.31 284.256 3059.51 284.767 3055.64 284.767C3048.55 284.767 3042.08 283.123 3036.24 279.835C3030.39 276.475 3025.75 271.835 3022.32 265.917C3018.96 259.926 3017.28 253.204 3017.28 245.751C3017.28 238.299 3018.96 231.614 3022.32 225.696C3025.75 219.705 3030.39 215.065 3036.24 211.777C3042.08 208.416 3048.55 206.736 3055.64 206.736C3062.8 206.736 3069.3 208.416 3075.15 211.777C3080.99 215.065 3085.59 219.668 3088.95 225.586C3092.32 231.504 3094 238.226 3094 245.751C3094 253.058 3092.39 259.633 3089.17 265.479C3085.96 271.324 3081.54 275.927 3075.91 279.287L3095.2 298.466H3082.27ZM3027.47 245.751C3027.47 251.816 3028.68 257.149 3031.09 261.752C3033.57 266.355 3036.93 269.899 3041.17 272.383C3045.48 274.867 3050.3 276.109 3055.64 276.109C3060.97 276.109 3065.76 274.867 3069.99 272.383C3074.31 269.899 3077.67 266.355 3080.08 261.752C3082.56 257.149 3083.8 251.816 3083.8 245.751C3083.8 239.614 3082.56 234.281 3080.08 229.751C3077.67 225.148 3074.34 221.604 3070.1 219.12C3065.87 216.636 3061.04 215.394 3055.64 215.394C3050.23 215.394 3045.41 216.636 3041.17 219.12C3036.93 221.604 3033.57 225.148 3031.09 229.751C3028.68 234.281 3027.47 239.614 3027.47 245.751ZM3152.53 267.013H3119.21L3113.07 284H3102.55L3130.17 208.051H3141.68L3169.19 284H3158.67L3152.53 267.013ZM3149.68 258.903L3135.87 220.326L3122.06 258.903H3149.68ZM3221.44 284L3203.25 252.766H3191.2V284H3181.22V207.613H3205.88C3211.65 207.613 3216.51 208.599 3220.46 210.572C3224.48 212.544 3227.47 215.211 3229.45 218.572C3231.42 221.933 3232.4 225.769 3232.4 230.079C3232.4 235.34 3230.87 239.98 3227.8 243.998C3224.81 248.016 3220.28 250.683 3214.21 251.998L3233.39 284H3221.44ZM3191.2 244.765H3205.88C3211.29 244.765 3215.34 243.45 3218.05 240.82C3220.75 238.116 3222.1 234.536 3222.1 230.079C3222.1 225.55 3220.75 222.043 3218.05 219.558C3215.42 217.074 3211.36 215.832 3205.88 215.832H3191.2V244.765ZM3257.87 207.613V284H3247.9V207.613H3257.87ZM3299.09 284.767C3294.05 284.767 3289.52 283.89 3285.5 282.137C3281.56 280.31 3278.45 277.826 3276.19 274.684C3273.92 271.47 3272.75 267.78 3272.68 263.615H3283.31C3283.68 267.195 3285.14 270.228 3287.69 272.712C3290.32 275.123 3294.12 276.328 3299.09 276.328C3303.84 276.328 3307.57 275.159 3310.27 272.821C3313.05 270.41 3314.44 267.342 3314.44 263.615C3314.44 260.693 3313.63 258.318 3312.02 256.492C3310.42 254.665 3308.41 253.277 3306 252.327C3303.59 251.377 3300.33 250.354 3296.24 249.259C3291.2 247.943 3287.15 246.628 3284.08 245.313C3281.08 243.998 3278.49 241.952 3276.3 239.176C3274.18 236.326 3273.12 232.527 3273.12 227.778C3273.12 223.613 3274.18 219.924 3276.3 216.709C3278.41 213.494 3281.37 211.01 3285.17 209.256C3289.05 207.503 3293.47 206.626 3298.43 206.626C3305.59 206.626 3311.44 208.416 3315.97 211.996C3320.57 215.576 3323.17 220.326 3323.75 226.244H3312.79C3312.43 223.321 3310.89 220.764 3308.19 218.572C3305.48 216.307 3301.9 215.175 3297.45 215.175C3293.28 215.175 3289.89 216.271 3287.26 218.462C3284.63 220.581 3283.31 223.577 3283.31 227.449C3283.31 230.226 3284.08 232.491 3285.61 234.244C3287.22 235.998 3289.16 237.349 3291.42 238.299C3293.76 239.176 3297.01 240.199 3301.17 241.368C3306.22 242.756 3310.27 244.144 3313.34 245.532C3316.41 246.847 3319.04 248.93 3321.23 251.779C3323.42 254.556 3324.52 258.355 3324.52 263.177C3324.52 266.903 3323.53 270.41 3321.56 273.698C3319.59 276.986 3316.66 279.653 3312.79 281.699C3308.92 283.744 3304.35 284.767 3299.09 284.767ZM3398.05 207.613V284H3388.07V249.368H3349.17V284H3339.19V207.613H3349.17V241.149H3388.07V207.613H3398.05ZM3484.51 284L3466.32 252.766H3454.27V284H3444.29V207.613H3468.95C3474.72 207.613 3479.58 208.599 3483.53 210.572C3487.55 212.544 3490.54 215.211 3492.52 218.572C3494.49 221.933 3495.47 225.769 3495.47 230.079C3495.47 235.34 3493.94 239.98 3490.87 243.998C3487.88 248.016 3483.35 250.683 3477.28 251.998L3496.46 284H3484.51ZM3454.27 244.765H3468.95C3474.36 244.765 3478.41 243.45 3481.12 240.82C3483.82 238.116 3485.17 234.536 3485.17 230.079C3485.17 225.55 3483.82 222.043 3481.12 219.558C3478.49 217.074 3474.43 215.832 3468.95 215.832H3454.27V244.765ZM3520.94 215.723V241.258H3548.78V249.478H3520.94V275.78H3552.07V284H3510.97V207.503H3552.07V215.723H3520.94ZM3591.38 284.767C3586.34 284.767 3581.81 283.89 3577.79 282.137C3573.84 280.31 3570.74 277.826 3568.47 274.684C3566.21 271.47 3565.04 267.78 3564.97 263.615H3575.6C3575.96 267.195 3577.42 270.228 3579.98 272.712C3582.61 275.123 3586.41 276.328 3591.38 276.328C3596.13 276.328 3599.86 275.159 3602.56 272.821C3605.33 270.41 3606.72 267.342 3606.72 263.615C3606.72 260.693 3605.92 258.318 3604.31 256.492C3602.7 254.665 3600.7 253.277 3598.28 252.327C3595.87 251.377 3592.62 250.354 3588.53 249.259C3583.49 247.943 3579.43 246.628 3576.37 245.313C3573.37 243.998 3570.78 241.952 3568.58 239.176C3566.47 236.326 3565.41 232.527 3565.41 227.778C3565.41 223.613 3566.47 219.924 3568.58 216.709C3570.7 213.494 3573.66 211.01 3577.46 209.256C3581.33 207.503 3585.75 206.626 3590.72 206.626C3597.88 206.626 3603.73 208.416 3608.26 211.996C3612.86 215.576 3615.45 220.326 3616.04 226.244H3605.08C3604.71 223.321 3603.18 220.764 3600.48 218.572C3597.77 216.307 3594.19 215.175 3589.74 215.175C3585.57 215.175 3582.17 216.271 3579.54 218.462C3576.91 220.581 3575.6 223.577 3575.6 227.449C3575.6 230.226 3576.37 232.491 3577.9 234.244C3579.51 235.998 3581.44 237.349 3583.71 238.299C3586.05 239.176 3589.3 240.199 3593.46 241.368C3598.5 242.756 3602.56 244.144 3605.63 245.532C3608.7 246.847 3611.33 248.93 3613.52 251.779C3615.71 254.556 3616.81 258.355 3616.81 263.177C3616.81 266.903 3615.82 270.41 3613.85 273.698C3611.87 276.986 3608.95 279.653 3605.08 281.699C3601.21 283.744 3596.64 284.767 3591.38 284.767ZM3682.55 229.97C3682.55 236.326 3680.36 241.623 3675.98 245.861C3671.67 250.026 3665.05 252.108 3656.14 252.108H3641.46V284H3631.48V207.613H3656.14C3664.76 207.613 3671.3 209.695 3675.76 213.859C3680.29 218.024 3682.55 223.394 3682.55 229.97ZM3656.14 243.888C3661.69 243.888 3665.79 242.683 3668.42 240.272C3671.05 237.861 3672.36 234.427 3672.36 229.97C3672.36 220.545 3666.95 215.832 3656.14 215.832H3641.46V243.888H3656.14ZM3704.7 207.613V255.944C3704.7 262.739 3706.35 267.78 3709.63 271.068C3713 274.356 3717.63 276 3723.55 276C3729.4 276 3733.96 274.356 3737.25 271.068C3740.61 267.78 3742.29 262.739 3742.29 255.944V207.613H3752.27V255.834C3752.27 262.191 3750.99 267.561 3748.43 271.945C3745.87 276.255 3742.4 279.47 3738.02 281.589C3733.71 283.708 3728.85 284.767 3723.44 284.767C3718.04 284.767 3713.14 283.708 3708.76 281.589C3704.45 279.47 3701.01 276.255 3698.46 271.945C3695.97 267.561 3694.73 262.191 3694.73 255.834V207.613H3704.7ZM3807.15 244.656C3809.93 245.094 3812.45 246.226 3814.71 248.053C3817.05 249.88 3818.88 252.145 3820.19 254.848C3821.58 257.551 3822.28 260.437 3822.28 263.506C3822.28 267.378 3821.29 270.885 3819.32 274.027C3817.34 277.096 3814.46 279.543 3810.66 281.37C3806.93 283.123 3802.51 284 3797.4 284H3768.9V207.613H3796.3C3801.49 207.613 3805.91 208.489 3809.56 210.243C3813.22 211.923 3815.96 214.225 3817.78 217.147C3819.61 220.07 3820.52 223.358 3820.52 227.011C3820.52 231.541 3819.28 235.303 3816.8 238.299C3814.39 241.222 3811.17 243.34 3807.15 244.656ZM3778.88 240.601H3795.64C3800.32 240.601 3803.94 239.505 3806.49 237.313C3809.05 235.121 3810.33 232.089 3810.33 228.216C3810.33 224.344 3809.05 221.312 3806.49 219.12C3803.94 216.928 3800.25 215.832 3795.43 215.832H3778.88V240.601ZM3796.52 275.78C3801.49 275.78 3805.36 274.611 3808.14 272.273C3810.91 269.935 3812.3 266.684 3812.3 262.519C3812.3 258.282 3810.84 254.957 3807.92 252.546C3805 250.062 3801.09 248.82 3796.19 248.82H3778.88V275.78H3796.52ZM3846.09 275.89H3872.83V284H3836.12V207.613H3846.09V275.89ZM3893.39 207.613V284H3883.42V207.613H3893.39ZM3951.82 284L3920.36 249.149V284H3910.39V207.613H3920.36V243.012L3951.93 207.613H3964.53L3929.9 245.861L3964.86 284H3951.82ZM4021.15 267.013H3987.83L3981.7 284H3971.18L3998.79 208.051H4010.3L4037.81 284H4027.29L4021.15 267.013ZM4018.3 258.903L4004.49 220.326L3990.68 258.903H4018.3ZM1990.13 372.161V448H1980.16V391.449L1954.95 448H1947.93L1922.62 391.34V448H1912.64V372.161H1923.39L1951.44 434.849L1979.5 372.161H1990.13ZM2052.19 431.013H2018.88L2012.74 448H2002.22L2029.84 372.051H2041.34L2068.85 448H2058.33L2052.19 431.013ZM2049.35 422.903L2035.54 384.326L2021.73 422.903H2049.35ZM2121.11 448L2102.92 416.766H2090.86V448H2080.89V371.613H2105.55C2111.32 371.613 2116.18 372.599 2120.12 374.572C2124.14 376.544 2127.14 379.211 2129.11 382.572C2131.08 385.933 2132.07 389.769 2132.07 394.079C2132.07 399.34 2130.54 403.98 2127.47 407.998C2124.47 412.016 2119.94 414.683 2113.88 415.998L2133.06 448H2121.11ZM2090.86 408.765H2105.55C2110.96 408.765 2115.01 407.45 2117.71 404.82C2120.42 402.116 2121.77 398.536 2121.77 394.079C2121.77 389.55 2120.42 386.043 2117.71 383.558C2115.08 381.074 2111.03 379.832 2105.55 379.832H2090.86V408.765ZM2188.99 448L2157.54 413.149V448H2147.57V371.613H2157.54V407.012L2189.1 371.613H2201.71L2167.07 409.861L2202.04 448H2188.99ZM2258.33 431.013H2225.01L2218.87 448H2208.35L2235.97 372.051H2247.48L2274.99 448H2264.46L2258.33 431.013ZM2255.48 422.903L2241.67 384.326L2227.86 422.903H2255.48ZM2295.46 439.342H2332.72V448H2283.62V440.109L2320.67 380.271H2284.06V371.613H2332.5V379.503L2295.46 439.342ZM2356.29 371.613V448H2346.31V371.613H2356.29ZM2381.18 415.67L2370.33 396.491H2380.08L2390.6 415.67L2380.08 434.849H2370.33L2381.18 415.67ZM2400.9 415.67L2390.16 396.491H2399.92L2410.44 415.67L2399.92 434.849H2390.16L2400.9 415.67ZM2476.8 371.613C2485.13 371.613 2492.33 373.183 2498.39 376.325C2504.53 379.394 2509.2 383.814 2512.42 389.586C2515.71 395.358 2517.35 402.153 2517.35 409.971C2517.35 417.788 2515.71 424.583 2512.42 430.355C2509.2 436.054 2504.53 440.438 2498.39 443.507C2492.33 446.502 2485.13 448 2476.8 448H2453.02V371.613H2476.8ZM2476.8 439.78C2486.66 439.78 2494.19 437.187 2499.38 431.999C2504.56 426.739 2507.16 419.396 2507.16 409.971C2507.16 400.472 2504.53 393.057 2499.27 387.723C2494.08 382.389 2486.59 379.723 2476.8 379.723H2462.99V439.78H2476.8ZM2575.66 431.013H2542.34L2536.2 448H2525.68L2553.3 372.051H2564.81L2592.32 448H2581.8L2575.66 431.013ZM2572.81 422.903L2559 384.326L2545.19 422.903H2572.81ZM2667.48 371.613L2638.66 448H2627.15L2598.33 371.613H2608.96L2632.96 437.479L2656.96 371.613H2667.48ZM2688.39 439.89H2715.13V448H2678.42V371.613H2688.39V439.89ZM2770.87 431.013H2737.56L2731.42 448H2720.9L2748.52 372.051H2760.02L2787.53 448H2777.01L2770.87 431.013ZM2768.02 422.903L2754.22 384.326L2740.41 422.903H2768.02ZM2846.59 371.613V379.723H2825.76V448H2815.79V379.723H2794.86V371.613H2846.59ZM2897.83 371.613V419.944C2897.83 426.739 2899.48 431.78 2902.77 435.068C2906.13 438.356 2910.77 440 2916.68 440C2922.53 440 2927.1 438.356 2930.38 435.068C2933.74 431.78 2935.42 426.739 2935.42 419.944V371.613H2945.4V419.834C2945.4 426.191 2944.12 431.561 2941.56 435.945C2939 440.255 2935.53 443.47 2931.15 445.589C2926.84 447.708 2921.98 448.767 2916.57 448.767C2911.17 448.767 2906.27 447.708 2901.89 445.589C2897.58 443.47 2894.14 440.255 2891.59 435.945C2889.1 431.561 2887.86 426.191 2887.86 419.834V371.613H2897.83ZM3022.09 448H3012.12L2972.01 387.175V448H2962.03V371.503H2972.01L3012.12 432.218V371.503H3022.09V448ZM3049.07 371.613V448H3039.09V371.613H3049.07ZM3113.08 371.613V379.723H3092.26V448H3082.28V379.723H3061.35V371.613H3113.08ZM3170.51 431.013H3137.19L3131.06 448H3120.53L3148.15 372.051H3159.66L3187.17 448H3176.65L3170.51 431.013ZM3167.66 422.903L3153.85 384.326L3140.04 422.903H3167.66ZM3239.43 448L3221.23 416.766H3209.18V448H3199.2V371.613H3223.86C3229.63 371.613 3234.49 372.599 3238.44 374.572C3242.46 376.544 3245.45 379.211 3247.43 382.572C3249.4 385.933 3250.38 389.769 3250.38 394.079C3250.38 399.34 3248.85 403.98 3245.78 407.998C3242.79 412.016 3238.26 414.683 3232.19 415.998L3251.37 448H3239.43ZM3209.18 408.765H3223.86C3229.27 408.765 3233.32 407.45 3236.03 404.82C3238.73 402.116 3240.08 398.536 3240.08 394.079C3240.08 389.55 3238.73 386.043 3236.03 383.558C3233.4 381.074 3229.34 379.832 3223.86 379.832H3209.18V408.765ZM3336.53 448L3305.07 413.149V448H3295.1V371.613H3305.07V407.012L3336.64 371.613H3349.24L3314.61 409.861L3349.57 448H3336.53ZM3395.34 448.767C3388.25 448.767 3381.78 447.123 3375.94 443.835C3370.09 440.475 3365.46 435.835 3362.02 429.917C3358.66 423.926 3356.98 417.204 3356.98 409.751C3356.98 402.299 3358.66 395.614 3362.02 389.696C3365.46 383.705 3370.09 379.065 3375.94 375.777C3381.78 372.416 3388.25 370.736 3395.34 370.736C3402.5 370.736 3409 372.416 3414.85 375.777C3420.69 379.065 3425.29 383.668 3428.65 389.586C3432.02 395.504 3433.7 402.226 3433.7 409.751C3433.7 417.277 3432.02 423.999 3428.65 429.917C3425.29 435.835 3420.69 440.475 3414.85 443.835C3409 447.123 3402.5 448.767 3395.34 448.767ZM3395.34 440.109C3400.67 440.109 3405.46 438.867 3409.7 436.383C3414.01 433.899 3417.37 430.355 3419.78 425.752C3422.26 421.149 3423.5 415.816 3423.5 409.751C3423.5 403.614 3422.26 398.281 3419.78 393.751C3417.37 389.148 3414.04 385.604 3409.8 383.12C3405.57 380.636 3400.74 379.394 3395.34 379.394C3389.93 379.394 3385.11 380.636 3380.87 383.12C3376.63 385.604 3373.27 389.148 3370.79 393.751C3368.38 398.281 3367.17 403.614 3367.17 409.751C3367.17 415.816 3368.38 421.149 3370.79 425.752C3373.27 430.355 3376.63 433.899 3380.87 436.383C3385.18 438.867 3390 440.109 3395.34 440.109ZM3487.08 448L3468.89 416.766H3456.84V448H3446.86V371.613H3471.52C3477.29 371.613 3482.15 372.599 3486.1 374.572C3490.12 376.544 3493.11 379.211 3495.08 382.572C3497.06 385.933 3498.04 389.769 3498.04 394.079C3498.04 399.34 3496.51 403.98 3493.44 407.998C3490.44 412.016 3485.91 414.683 3479.85 415.998L3499.03 448H3487.08ZM3456.84 408.765H3471.52C3476.93 408.765 3480.98 407.45 3483.69 404.82C3486.39 402.116 3487.74 398.536 3487.74 394.079C3487.74 389.55 3486.39 386.043 3483.69 383.558C3481.06 381.074 3477 379.832 3471.52 379.832H3456.84V408.765ZM3544.77 409.861L3568.23 448H3556.94L3538.64 418.19L3521.21 448H3510.14L3533.49 409.861L3510.03 371.613H3521.21L3539.62 401.532L3557.16 371.613H3568.34L3544.77 409.861ZM3616.24 448.767C3609.15 448.767 3602.69 447.123 3596.84 443.835C3591 440.475 3586.36 435.835 3582.92 429.917C3579.56 423.926 3577.88 417.204 3577.88 409.751C3577.88 402.299 3579.56 395.614 3582.92 389.696C3586.36 383.705 3591 379.065 3596.84 375.777C3602.69 372.416 3609.15 370.736 3616.24 370.736C3623.4 370.736 3629.9 372.416 3635.75 375.777C3641.59 379.065 3646.2 383.668 3649.56 389.586C3652.92 395.504 3654.6 402.226 3654.6 409.751C3654.6 417.277 3652.92 423.999 3649.56 429.917C3646.2 435.835 3641.59 440.475 3635.75 443.835C3629.9 447.123 3623.4 448.767 3616.24 448.767ZM3616.24 440.109C3621.57 440.109 3626.36 438.867 3630.6 436.383C3634.91 433.899 3638.27 430.355 3640.68 425.752C3643.16 421.149 3644.41 415.816 3644.41 409.751C3644.41 403.614 3643.16 398.281 3640.68 393.751C3638.27 389.148 3634.94 385.604 3630.71 383.12C3626.47 380.636 3621.65 379.394 3616.24 379.394C3610.83 379.394 3606.01 380.636 3601.77 383.12C3597.54 385.604 3594.17 389.148 3591.69 393.751C3589.28 398.281 3588.07 403.614 3588.07 409.751C3588.07 415.816 3589.28 421.149 3591.69 425.752C3594.17 430.355 3597.54 433.899 3601.77 436.383C3606.08 438.867 3610.91 440.109 3616.24 440.109ZM3727.82 448H3717.85L3677.74 387.175V448H3667.76V371.503H3677.74L3717.85 432.218V371.503H3727.82V448ZM3789.98 431.013H3756.66L3750.52 448H3740L3767.62 372.051H3779.13L3806.63 448H3796.11L3789.98 431.013ZM3787.13 422.903L3773.32 384.326L3759.51 422.903H3787.13ZM3842.89 448.767C3837.85 448.767 3833.32 447.89 3829.3 446.137C3825.36 444.31 3822.25 441.826 3819.99 438.684C3817.72 435.47 3816.55 431.78 3816.48 427.615H3827.11C3827.47 431.195 3828.94 434.228 3831.49 436.712C3834.12 439.123 3837.92 440.328 3842.89 440.328C3847.64 440.328 3851.37 439.159 3854.07 436.821C3856.85 434.41 3858.23 431.342 3858.23 427.615C3858.23 424.693 3857.43 422.318 3855.82 420.492C3854.22 418.665 3852.21 417.277 3849.8 416.327C3847.38 415.377 3844.13 414.354 3840.04 413.259C3835 411.943 3830.94 410.628 3827.88 409.313C3824.88 407.998 3822.29 405.952 3820.1 403.176C3817.98 400.326 3816.92 396.527 3816.92 391.778C3816.92 387.613 3817.98 383.924 3820.1 380.709C3822.21 377.494 3825.17 375.01 3828.97 373.256C3832.84 371.503 3837.26 370.626 3842.23 370.626C3849.39 370.626 3855.24 372.416 3859.77 375.996C3864.37 379.576 3866.97 384.326 3867.55 390.244H3856.59C3856.22 387.321 3854.69 384.764 3851.99 382.572C3849.28 380.307 3845.7 379.175 3841.25 379.175C3837.08 379.175 3833.68 380.271 3831.05 382.462C3828.42 384.581 3827.11 387.577 3827.11 391.449C3827.11 394.226 3827.88 396.491 3829.41 398.244C3831.02 399.998 3832.95 401.349 3835.22 402.299C3837.56 403.176 3840.81 404.199 3844.97 405.368C3850.01 406.756 3854.07 408.144 3857.14 409.532C3860.21 410.847 3862.84 412.93 3865.03 415.779C3867.22 418.556 3868.32 422.355 3868.32 427.177C3868.32 430.903 3867.33 434.41 3865.36 437.698C3863.38 440.986 3860.46 443.653 3856.59 445.699C3852.72 447.744 3848.15 448.767 3842.89 448.767ZM3892.97 371.613V448H3882.99V371.613H3892.97Z" fill="#182F43"/>
<path fill-rule="evenodd" clip-rule="evenodd" d="M1273.27 6.03535C1271.49 6.55135 1270.02 7.32835 1270.02 7.76235C1270.02 9.26035 1281.55 12.2293 1289.02 12.6583C1294.59 12.9773 1297.02 12.7103 1298.46 11.6263C1300.34 10.2133 1300.31 10.1133 1297.44 8.63335C1294.07 6.88735 1284.15 4.87234 1279.59 5.00634C1277.9 5.05634 1275.06 5.51935 1273.27 6.03535ZM1468.02 6.33035C1468.02 8.93235 1486.14 22.0873 1504 32.4543C1512.17 37.1953 1527.19 43.8643 1529.77 43.8993C1534.04 43.9573 1524.79 32.7023 1514.62 25.4533C1497.08 12.9593 1468.02 1.03335 1468.02 6.33035ZM1334.83 16.2553C1329.01 17.8963 1327.02 19.4863 1327.02 22.5043C1327.02 27.1493 1338 36.4033 1351.62 43.2383C1364.71 49.8084 1384.59 51.8713 1390.71 47.2973C1396.82 42.7413 1395.94 35.4433 1388.58 29.4053C1376.39 19.4203 1348.13 12.5053 1334.83 16.2553ZM811.245 38.8873C803.988 41.4993 796.964 46.8973 792.678 53.1573C785.561 63.5543 785.958 52.3273 786.255 234.509L786.523 398.416L789.611 404.946C793.494 413.159 797.535 417.788 803.797 421.196C811.138 425.192 817.774 426.331 825.824 424.976C840.141 422.568 852.278 413.356 857.202 401.163L859.523 395.416L860.523 184.516L901.836 242.689C924.558 274.683 945.481 303.144 948.331 305.935C951.18 308.725 955.989 312.225 959.017 313.712C963.706 316.015 965.785 316.413 973.023 316.396C980.434 316.378 982.286 315.994 987.473 313.396C990.746 311.757 996.189 307.716 999.57 304.416C1002.95 301.116 1025.92 272.808 1050.62 241.509L1095.52 184.601L1096.05 290.009C1096.51 383.79 1096.75 395.939 1098.2 400.156C1103.77 416.412 1115.54 425.155 1132.07 425.316C1138.65 425.38 1140.47 424.973 1146.24 422.132C1156.51 417.076 1162.71 408.371 1165.05 395.754C1165.7 392.198 1165.96 334.009 1165.79 228.36L1165.52 66.4163L1163.24 60.7693C1160.01 52.7813 1154.22 46.6313 1146.24 42.7033C1139.96 39.6173 1138.91 39.4163 1129.04 39.4233C1119.49 39.4293 1118.06 39.6813 1113.52 42.1523C1110.77 43.6493 1107.34 45.8963 1105.88 47.1453C1104.43 48.3943 1074.79 87.8913 1040 134.916C1005.22 181.941 976.647 220.554 976.503 220.724C976.359 220.893 948.79 183.993 915.238 138.724C845.092 44.0794 843.531 42.2713 828.523 38.2723C821.782 36.4763 817.526 36.6273 811.245 38.8873ZM28.9653 40.9233C16.6713 43.0063 6.2223 51.4353 2.0103 62.6693C-1.0757 70.8983 -0.549702 84.0703 3.1823 92.0643C6.0723 98.2533 12.0653 104.852 17.2203 107.519C25.2443 111.67 28.4833 111.892 81.2503 111.904L131.977 111.916L132.523 399.416L134.936 405.409C138.232 413.597 146.453 421.781 154.53 424.917C162.289 427.929 174.173 428.215 181.785 425.573C193.012 421.677 202.702 411.303 204.964 400.757C205.681 397.411 206.023 350.03 206.023 253.867V111.916H254.918C301.354 111.916 304.145 111.813 310.437 109.87C327.392 104.633 337.531 87.5033 334.218 69.6893C331.317 54.0893 320.336 43.5003 304.344 40.8813C297.362 39.7373 35.7293 39.7783 28.9653 40.9233ZM412.406 42.8403C403.118 45.1323 393.851 52.4953 390.034 60.6163C388.946 62.9313 387.584 67.8843 387.008 71.6213C386.303 76.2013 386.053 130.579 386.242 238.416L386.523 398.416L388.806 404.063C393.261 415.079 402.53 422.587 414.523 424.894C418.884 425.733 446.742 425.946 516.523 425.677C600.709 425.352 613.634 425.102 621.553 423.643C655.692 417.352 681.251 403.013 698.039 380.734C708.369 367.026 715.956 349.471 719.138 331.916C721.333 319.807 720.872 295.257 718.252 284.729C711.013 255.642 694.939 235.716 667.686 222.048L658.332 217.356L662.806 212.886C675.875 199.828 684.332 182.736 687.104 163.774C688.88 151.632 687.781 131.681 684.677 119.71C674.559 80.6853 646.216 54.2433 604.342 44.7623C594.638 42.5653 593.479 42.5364 505.023 42.3054C455.798 42.1764 414.12 42.4173 412.406 42.8403ZM1504.64 44.9533C1494.73 47.9143 1493.84 58.2923 1502.03 75.4163C1513.58 99.5433 1543.56 129.785 1564.02 137.951C1567.05 139.158 1571.93 140.193 1574.88 140.25C1579.8 140.346 1580.5 140.067 1583.52 136.771C1587.82 132.082 1588.67 127.002 1586.56 118.737C1583.76 107.773 1577.1 96.1593 1564.83 80.8263C1547.12 58.7063 1517.57 41.0923 1504.64 44.9533ZM1421.88 47.9093C1405.89 50.7003 1398.66 62.0293 1401.96 79.1373C1405.83 99.1643 1424.56 121.091 1447.52 132.494C1458.59 137.987 1468.77 140.29 1479.02 139.614C1498.49 138.332 1510.05 127.825 1510 111.47C1509.96 95.6793 1500.76 80.4223 1483.55 67.5943C1464.75 53.5723 1438.13 45.0753 1421.88 47.9093ZM590.27 112.737C598.257 115.962 606.195 123.488 610.209 131.643C612.975 137.26 613.502 139.54 613.844 147.372C614.754 168.182 607.013 183.139 592.244 189.105L586.523 191.416L460.023 191.987V109.831L584.523 110.416L590.27 112.737ZM1405.29 136.458C1388.02 141.107 1374.27 155.35 1369.55 173.468C1367.58 181.055 1367.6 193.544 1369.61 201.852C1370.48 205.462 1373.06 212.241 1375.33 216.916C1378.61 223.683 1381.2 227.173 1387.99 234.034C1398 244.147 1406.47 248.767 1419.97 251.479C1445.99 256.709 1468.54 245.809 1479.77 222.568C1496.33 188.31 1474.04 146.76 1433.56 136.436C1426.21 134.561 1412.29 134.572 1405.29 136.458ZM1595.75 138.609C1592.98 139.332 1590.08 146.199 1588.84 154.967C1586.89 168.726 1590.01 189.887 1597.15 211.266C1604.61 233.629 1613.86 250.336 1623.19 258.327C1638.71 271.61 1645.11 247.041 1636.51 207.235C1631.17 182.559 1620.68 158.406 1610.34 146.979C1605.73 141.877 1599.41 137.371 1597.81 138.032C1597.65 138.096 1596.73 138.355 1595.75 138.609ZM1301.36 155.801C1281.37 165.11 1277.51 195.389 1294.04 213.319C1310.23 230.883 1341.47 225.055 1349.4 202.99C1352.05 195.629 1351.36 184.333 1347.8 176.663C1344.3 169.128 1336.48 160.972 1329.29 157.362C1321.62 153.514 1307.92 152.748 1301.36 155.801ZM1235.92 162.186C1231.49 165.143 1229.03 170.211 1229.03 176.35C1229.02 186.042 1234.76 192.982 1242.86 193.094C1251.56 193.214 1257.01 187.257 1257.02 177.626C1257.03 163.765 1245.83 155.568 1235.92 162.186ZM1483.79 246.997C1475.88 248.863 1464.27 254.1 1458.62 258.354C1442.4 270.572 1432.02 292.567 1432.02 314.762C1432.02 326.643 1434.05 335.071 1439.38 345.416C1445.13 356.559 1454.01 365.418 1464.52 370.481C1471.74 373.958 1473.46 374.373 1482.14 374.736C1497.65 375.384 1509.27 370.917 1521.72 359.517C1537.07 345.458 1545.23 326.288 1545.15 304.416C1545.11 292.382 1543.39 285.161 1537.98 274.335C1533.39 265.148 1524.76 255.721 1517.13 251.57C1507.84 246.514 1493.93 244.606 1483.79 246.997ZM1588.69 249.411C1583.56 251.364 1576.21 256.859 1572.42 261.574C1549.57 290.032 1546.14 341.995 1565.6 364.731C1579.28 380.722 1600.06 373.904 1612.74 349.262C1621.1 333.004 1623.55 321.56 1623.42 299.416C1623.32 283.17 1623.19 282.036 1620.29 273.84C1616.67 263.621 1614.98 260.207 1611.43 255.992C1606.03 249.571 1595.94 246.652 1588.69 249.411ZM605.499 261.428C614.72 263.382 621.758 267.064 627.846 273.12C649.692 294.852 645.54 335.269 619.883 350.624C609.284 356.967 609.997 356.916 531.313 356.916H460.023V259.916L529.273 259.933C586.5 259.948 599.734 260.207 605.499 261.428ZM1606.15 378.068C1604.29 378.602 1600.4 381.408 1597.5 384.307C1584.52 397.287 1573.17 434.061 1580.02 440.916C1582.51 443.405 1583.7 443.413 1587.71 440.968C1595.25 436.37 1606.58 416.86 1610.96 400.936C1612.93 393.789 1613.7 381.853 1612.42 378.498C1611.74 376.727 1610.99 376.675 1606.15 378.068ZM1415.31 379.782C1393.14 387.444 1380.47 412.011 1389.35 430.15C1392.55 436.701 1396.29 440.185 1404.02 443.826C1408.8 446.076 1410.84 446.416 1419.58 446.416C1429.17 446.416 1429.97 446.245 1437.18 442.681C1448.77 436.954 1456.35 427.602 1459.56 415.071C1463.12 401.17 1456.21 387.245 1442.52 380.761C1437.46 378.359 1435.28 377.923 1428.52 377.949C1423.49 377.969 1418.59 378.649 1415.31 379.782ZM1576.32 465.212C1572.45 469.407 1565.02 481.085 1565.02 482.97C1565.02 484.279 1566.35 484.153 1568.2 482.666C1570.67 480.688 1580.78 466.7 1581.93 463.666C1583.54 459.438 1581 460.138 1576.32 465.212ZM1367.67 464.119C1356.4 466.485 1350.39 479.357 1357.19 486.591C1360.34 489.95 1368.9 492.258 1375.07 491.41C1387.9 489.645 1394.8 477.541 1387.4 469.767C1385.82 468.104 1383.71 466.301 1382.71 465.759C1379.69 464.123 1371.77 463.259 1367.67 464.119Z" fill="#4F76C9"/>
<path fill-rule="evenodd" clip-rule="evenodd" d="M1468.55 5.71341C1466.3 9.3527 1510.55 37.5213 1526.12 42.3603C1531.44 44.0148 1531.76 43.8681 1530.07 40.5623C1526.31 33.198 1511.19 22.013 1493.05 13.1858C1478.99 6.34106 1469.88 3.56179 1468.55 5.71341ZM1271.79 6.66531L1269.52 7.63264L1274.17 9.32954C1284.27 13.0105 1297.87 13.6868 1298.92 10.5594C1299.24 9.57582 1294.66 7.48287 1289.88 6.43061C1285.04 5.36677 1274.51 5.50342 1271.79 6.66531ZM1333.43 16.4962C1330.72 17.2821 1326.93 20.4929 1326.94 21.9968C1326.95 23.6729 1330.25 28.4324 1333.11 30.8912C1339.02 35.9657 1346.8 40.6573 1356.66 45.0848C1359.98 46.5756 1370.84 48.9418 1376.38 49.378C1384.6 50.0265 1390.27 48.3257 1392.93 44.4193C1396.18 39.6382 1395.15 36.0537 1388.82 30.1385C1385.3 26.8412 1376.23 21.8555 1370.75 20.205C1358.83 16.6143 1353.32 15.667 1344.71 15.7342C1339.82 15.7728 1334.74 16.1156 1333.43 16.4962ZM1502 46.1564C1497.61 48.6477 1496.16 54.4772 1497.87 62.6976C1502.01 82.5478 1527.93 115.26 1552.19 131.264C1562.7 138.198 1573.04 141.538 1578.73 139.834C1591.27 136.078 1590.48 118.853 1576.78 97.1582C1566.6 81.0238 1556.16 69.6442 1542.33 59.5926C1533.77 53.3701 1531.04 51.7295 1523.86 48.4948C1518.33 46.0035 1516.36 45.5187 1510.73 45.26C1505.73 45.03 1503.6 45.2485 1502 46.1564ZM1425.76 47.8733C1424.27 48.0084 1420.68 48.6785 1417.77 49.3625C1413.21 50.4364 1411.94 51.149 1408.39 54.6161C1405.27 57.6571 1403.98 59.6273 1403.05 62.7625C1399.35 75.239 1404.14 92.1532 1415.29 105.974C1417.39 108.579 1429.52 120.673 1431.86 122.49C1441.2 129.769 1453.95 136.039 1463.58 138.091C1470.32 139.527 1482.97 139.483 1488.65 138.005C1511.06 132.165 1516.7 109.03 1501.34 85.8991C1496.38 78.4406 1484.51 67.6169 1475.13 62.0136C1463.01 54.7728 1447.84 49.3425 1437.2 48.4323C1434.52 48.203 1431.45 47.9274 1430.39 47.8208C1429.33 47.7135 1427.24 47.7375 1425.76 47.8733ZM1406.74 136.428C1401.58 137.607 1394.46 140.885 1389.29 144.464C1386 146.737 1377.89 154.802 1377.89 155.795C1377.89 156.083 1377.15 157.358 1376.25 158.627C1375.34 159.896 1373.43 163.717 1372 167.118C1361.58 191.807 1373.07 225.933 1397.36 242.512C1413.92 253.812 1439.53 255.937 1456.56 247.425C1468.84 241.293 1479.93 226.833 1483.64 212.143C1487.69 196.133 1484.65 180.359 1474.62 165.294C1467.97 155.296 1454.36 144.112 1444.24 140.326C1442.35 139.621 1440.11 138.745 1439.27 138.38C1432.95 135.664 1414.84 134.577 1406.74 136.428ZM1594.62 140.539C1593.94 141.282 1592.62 143.627 1591.68 145.75C1590.21 149.046 1589.91 151.36 1589.62 161.576C1589.26 173.908 1589.73 178.809 1592.54 192.071C1594.19 199.851 1599.19 216.887 1600.24 218.32C1600.55 218.744 1601.24 220.481 1601.78 222.18C1602.86 225.609 1606.44 233.785 1608.76 238.116C1609.59 239.662 1610.71 241.75 1611.23 242.755C1612.37 244.905 1615.6 249.284 1619.85 254.428C1623.04 258.288 1629.39 262.711 1631.74 262.711C1634.52 262.711 1637.92 258.004 1639.27 252.286C1641.72 241.926 1639.9 219.254 1635.12 200.536C1626.8 167.979 1609.73 139.188 1598.75 139.188C1596.96 139.188 1595.37 139.707 1594.62 140.539ZM1306.01 154.526C1303.03 155.164 1297.06 158.406 1293.95 161.087C1285.26 168.556 1281.53 184.089 1285.2 197.49C1286.95 203.9 1290.12 209.76 1293.93 213.633C1296.38 216.122 1303.65 221.019 1304.91 221.026C1305.35 221.029 1306.75 221.605 1308.02 222.307C1309.69 223.226 1312.4 223.601 1317.67 223.647C1323.94 223.701 1325.79 223.401 1330.41 221.59C1344 216.257 1351.51 204.798 1350.69 190.652C1350.02 179.18 1345.43 170.173 1336.5 162.8C1329.76 157.246 1323.21 154.628 1315.04 154.234C1311.6 154.068 1307.54 154.2 1306.01 154.526ZM1238.93 160.934C1235.08 162.013 1230.78 166.465 1229.64 170.55C1228.39 174.99 1229.05 183.079 1230.92 186.244C1233.29 190.271 1238.49 193.229 1243.19 193.229C1254.16 193.229 1260.33 179.998 1254.66 168.624C1251.46 162.214 1245.23 159.165 1238.93 160.934ZM1487.36 247.332C1482.43 248.055 1474.41 250.224 1473.23 251.155C1472.81 251.49 1470.91 252.387 1469 253.148C1446 262.337 1429.31 294.445 1432.73 322.928C1433.79 331.759 1435.54 337.352 1439.99 346.161C1443.35 352.818 1444.11 353.826 1451.48 361.359C1460 370.074 1472.76 375.425 1485.02 375.425C1500.98 375.425 1517.03 367.126 1528.6 352.885C1547.91 329.135 1550.78 294.952 1535.55 270.163C1528.1 258.028 1516.47 249.884 1503.43 247.665C1495.98 246.396 1494.02 246.356 1487.36 247.332ZM1589.81 249.843C1575.68 255.399 1564.22 270.667 1557.54 292.819C1554.77 302.012 1553.59 311.506 1553.67 324.086C1553.82 347.687 1561.29 364.974 1574.28 371.754C1579.17 374.31 1587.7 374.141 1593.29 371.378C1603.59 366.287 1612.14 354.758 1618.34 337.596C1623.08 324.499 1625.19 304.575 1623.48 288.959C1621.78 273.371 1616.34 260.649 1608.35 253.62C1603.31 249.18 1595.52 247.594 1589.81 249.843ZM1421.05 379.288C1415.03 380.242 1406.09 384.685 1400.91 389.303C1391.41 397.766 1386.84 407.32 1386.85 418.658C1386.85 424.479 1387.13 425.806 1389.36 430.404C1394.51 441.037 1405.42 447.174 1419.19 447.193C1437.35 447.218 1452.45 436.256 1458.66 418.555C1463.7 404.182 1457.25 388.894 1443.22 381.957C1438.45 379.6 1436.58 379.11 1431.46 378.879C1428.11 378.728 1423.43 378.912 1421.05 379.288ZM1605.25 379.584C1602.56 380.757 1594.06 388.312 1594.06 389.532C1594.06 389.986 1593.57 390.907 1592.97 391.577C1591.48 393.25 1586.1 404.07 1583.73 410.166C1581.7 415.401 1577.84 431.404 1577.84 434.619C1577.84 435.64 1578.54 437.852 1579.4 439.534C1580.73 442.144 1581.33 442.59 1583.46 442.588C1589.37 442.581 1597.01 434.187 1604.18 419.816C1607.6 412.945 1611.49 401.846 1612.54 395.935C1613.43 390.921 1613.63 381.669 1612.89 379.735C1612.31 378.238 1608.51 378.163 1605.25 379.584ZM1577.32 465.558C1571.16 472.899 1564.69 483.732 1565.8 484.844C1566.43 485.475 1571.77 479.757 1576.41 473.472C1581.25 466.928 1582.47 464.837 1582.47 463.1C1582.47 460.88 1580.43 461.855 1577.32 465.558ZM1365.15 465.86C1362.06 466.994 1357.12 471.714 1355.8 474.798C1354.2 478.52 1354.45 483.263 1356.39 485.994C1358.92 489.537 1365.21 492 1371.75 492C1374.71 492 1377.74 491.704 1378.48 491.341C1379.22 490.979 1381.17 490.03 1382.82 489.232C1386.99 487.217 1389.73 482.849 1389.8 478.108C1389.87 473.731 1388.3 471.184 1383.43 467.737C1380.62 465.749 1379.46 465.448 1373.85 465.243C1370.34 465.115 1366.43 465.393 1365.15 465.86Z" fill="#67B240"/>
<path fill-rule="evenodd" clip-rule="evenodd" d="M1468.55 5.71341C1466.3 9.3527 1510.55 37.5213 1526.12 42.3603C1531.44 44.0148 1531.76 43.8681 1530.07 40.5623C1526.31 33.198 1511.19 22.013 1493.05 13.1858C1478.99 6.34106 1469.88 3.56179 1468.55 5.71341ZM1502 46.1564C1497.61 48.6477 1496.16 54.4772 1497.87 62.6976C1502.01 82.5478 1527.93 115.26 1552.19 131.264C1562.7 138.198 1573.04 141.538 1578.73 139.834C1591.27 136.078 1590.48 118.853 1576.78 97.1582C1566.6 81.0238 1556.16 69.6442 1542.33 59.5926C1533.77 53.3701 1531.04 51.7295 1523.86 48.4948C1518.33 46.0035 1516.36 45.5187 1510.73 45.26C1505.73 45.03 1503.6 45.2485 1502 46.1564ZM1406.74 136.428C1401.58 137.607 1394.46 140.885 1389.29 144.464C1386 146.737 1377.89 154.802 1377.89 155.795C1377.89 156.083 1377.15 157.358 1376.25 158.627C1375.34 159.896 1373.43 163.717 1372 167.118C1361.58 191.807 1373.07 225.933 1397.36 242.512C1413.92 253.812 1439.53 255.937 1456.56 247.425C1468.84 241.293 1479.93 226.833 1483.64 212.143C1487.69 196.133 1484.65 180.359 1474.62 165.294C1467.97 155.296 1454.36 144.112 1444.24 140.326C1442.35 139.621 1440.11 138.745 1439.27 138.38C1432.95 135.664 1414.84 134.577 1406.74 136.428ZM1306.01 154.526C1303.03 155.164 1297.06 158.406 1293.95 161.087C1285.26 168.556 1281.53 184.089 1285.2 197.49C1286.95 203.9 1290.12 209.76 1293.93 213.633C1296.38 216.122 1303.65 221.019 1304.91 221.026C1305.35 221.029 1306.75 221.605 1308.02 222.307C1309.69 223.226 1312.4 223.601 1317.67 223.647C1323.94 223.701 1325.79 223.401 1330.41 221.59C1344 216.257 1351.51 204.798 1350.69 190.652C1350.02 179.18 1345.43 170.173 1336.5 162.8C1329.76 157.246 1323.21 154.628 1315.04 154.234C1311.6 154.068 1307.54 154.2 1306.01 154.526ZM1238.93 160.934C1235.08 162.013 1230.78 166.465 1229.64 170.55C1228.39 174.99 1229.05 183.079 1230.92 186.244C1233.29 190.271 1238.49 193.229 1243.19 193.229C1254.16 193.229 1260.33 179.998 1254.66 168.624C1251.46 162.214 1245.23 159.165 1238.93 160.934ZM1589.81 249.843C1575.68 255.399 1564.22 270.667 1557.54 292.819C1554.77 302.012 1553.59 311.506 1553.67 324.086C1553.82 347.687 1561.29 364.974 1574.28 371.754C1579.17 374.31 1587.7 374.141 1593.29 371.378C1603.59 366.287 1612.14 354.758 1618.34 337.596C1623.08 324.499 1625.19 304.575 1623.48 288.959C1621.78 273.371 1616.34 260.649 1608.35 253.62C1603.31 249.18 1595.52 247.594 1589.81 249.843ZM1605.25 379.584C1602.56 380.757 1594.06 388.312 1594.06 389.532C1594.06 389.986 1593.57 390.907 1592.97 391.577C1591.48 393.25 1586.1 404.07 1583.73 410.166C1581.7 415.401 1577.84 431.404 1577.84 434.619C1577.84 435.64 1578.54 437.852 1579.4 439.534C1580.73 442.144 1581.33 442.59 1583.46 442.588C1589.37 442.581 1597.01 434.187 1604.18 419.816C1607.6 412.945 1611.49 401.846 1612.54 395.935C1613.43 390.921 1613.63 381.669 1612.89 379.735C1612.31 378.238 1608.51 378.163 1605.25 379.584ZM1577.32 465.558C1571.16 472.899 1564.69 483.732 1565.8 484.844C1566.43 485.475 1571.77 479.757 1576.41 473.472C1581.25 466.928 1582.47 464.837 1582.47 463.1C1582.47 460.88 1580.43 461.855 1577.32 465.558Z" fill="#4F79C3"/>
</svg>
