<svg width="165" height="40" viewBox="0 0 165 40" fill="none" xmlns="http://www.w3.org/2000/svg">
<g clip-path="url(#clip0_227:1162)">
<path d="M51.4009 26.0587H50.9645C50.3466 26.0626 49.7299 26.0033 49.124 25.8817C48.639 25.7868 48.1684 25.629 47.7242 25.4123C47.3584 25.2267 47.0203 24.9912 46.7195 24.7123C46.4523 24.4708 46.2196 24.1937 46.0278 23.8889C45.8595 23.6021 45.7215 23.2985 45.6161 22.9831C45.5176 22.6949 45.4445 22.3987 45.3979 22.0978C45.3606 21.8249 45.3427 21.5498 45.3443 21.2744V16.9017H48.1812V21.1097C48.1797 21.4148 48.2226 21.7186 48.3088 22.0114C48.399 22.307 48.5381 22.5853 48.7205 22.8348C48.9636 23.131 49.2844 23.3534 49.6469 23.4771C50.1284 23.6445 50.6361 23.7239 51.1457 23.7118C51.6472 23.7234 52.1466 23.6439 52.6197 23.4771C52.9786 23.3507 53.2961 23.1286 53.5379 22.8348C53.7318 22.5889 53.8796 22.3099 53.9743 22.0114C54.0624 21.719 54.1055 21.415 54.1019 21.1097V16.9017H56.9306V21.2785C56.929 21.6676 56.8862 22.0554 56.8029 22.4354C56.6951 22.8684 56.5275 23.2841 56.3047 23.6706C56.057 24.118 55.7323 24.518 55.3454 24.8523C54.8674 25.2369 54.3192 25.5249 53.7314 25.7005C52.9787 25.9435 52.1919 26.0644 51.4009 26.0587Z" fill="white"/>
<path d="M57.96 16.9017H68.0227V18.5487L61.8467 23.7859H68.1174V25.9187H57.8694V24.2718L63.8971 18.9975H57.9682L57.96 16.9017Z" fill="white"/>
<path d="M69.1384 25.9228V16.9017H76.8626C78.0621 16.9017 78.9116 17.0939 79.4112 17.4782C79.6471 17.6468 79.8385 17.8701 79.969 18.129C80.0995 18.3879 80.1652 18.6746 80.1605 18.9645V19.1333C80.1637 19.3902 80.1103 19.6447 80.0041 19.8786C79.9068 20.0845 79.7664 20.2671 79.5923 20.4138C79.4512 20.5325 79.2981 20.636 79.1353 20.7226C79.003 20.7902 78.8653 20.8467 78.7236 20.8914C78.9218 20.9416 79.1148 21.0106 79.3 21.0973C79.5184 21.2052 79.7253 21.3349 79.9176 21.4843C80.1506 21.6663 80.3357 21.9023 80.457 22.1719C80.5991 22.4816 80.6695 22.8194 80.6629 23.1601V23.3289C80.6629 25.0582 79.418 25.9228 76.9284 25.9228H69.1384ZM76.3767 18.804H71.9629V20.2738H76.3767C77.0314 20.2738 77.3608 20.0309 77.3608 19.5451V19.5204C77.3608 19.0428 77.0437 18.804 76.3767 18.804ZM76.6196 22.1884H71.9629V23.9589H76.632C77.3772 23.9589 77.7478 23.6624 77.7478 23.0736V23.0242C77.7354 22.4684 77.3649 22.1884 76.632 22.1884H76.6196Z" fill="white"/>
<path d="M81.4946 16.9017H91.0016V18.9604H84.2862V20.2944H90.8451V22.3531H84.2862V23.8354H91.1251V25.9311H81.4946V16.9017Z" fill="white"/>
<path d="M95.053 25.9228H92.2285V16.9017H95.053V20.6609L99.6727 16.9017H103.263L98.071 21.0191L103.506 25.9187H99.8003L95.0365 21.6614L95.053 25.9228Z" fill="white"/>
<path d="M106.717 16.9017V25.9228H103.893V16.9017H106.717Z" fill="white"/>
<path d="M112.84 26.0793C112.05 26.0916 111.261 26.0142 110.489 25.8488C109.946 25.7439 109.423 25.5565 108.937 25.2929C108.592 25.095 108.296 24.8237 108.068 24.4983C107.883 24.2501 107.744 23.9713 107.656 23.6748C107.593 23.4132 107.563 23.145 107.566 22.876V22.7443H110.514C110.577 23.694 111.47 24.1702 113.194 24.173H113.363C113.832 24.1793 114.301 24.1532 114.767 24.0948C115.052 24.069 115.331 23.9937 115.59 23.8724C115.727 23.8031 115.843 23.6996 115.928 23.5719C115.988 23.4623 116.018 23.3386 116.014 23.2137C116.024 23.0481 115.971 22.8851 115.866 22.7566C115.674 22.595 115.44 22.4909 115.191 22.4561C114.683 22.3584 114.168 22.3088 113.651 22.3078L112.099 22.2708C109.164 22.1884 107.696 21.3073 107.693 19.6274V19.5163C107.689 19.171 107.758 18.8287 107.895 18.5116C108.059 18.1712 108.3 17.8738 108.599 17.6429C109.05 17.3124 109.571 17.0911 110.122 16.9965C110.935 16.8287 111.763 16.7513 112.593 16.7659H113.416C114.149 16.7571 114.88 16.8136 115.603 16.9347C116.122 17.0143 116.628 17.161 117.11 17.3711C117.457 17.5263 117.771 17.7488 118.032 18.0258C118.247 18.2456 118.414 18.5078 118.522 18.7957C118.614 19.0603 118.66 19.3389 118.658 19.6192V19.7386H115.747C115.648 19.0222 114.779 18.6599 113.14 18.6599H112.947C112.422 18.6452 111.898 18.688 111.382 18.7875C111.141 18.8179 110.913 18.9117 110.719 19.0593C110.64 19.1692 110.599 19.3025 110.604 19.438C110.6 19.571 110.644 19.7011 110.728 19.8045C110.899 19.9531 111.109 20.0489 111.333 20.0803C111.78 20.1719 112.235 20.2161 112.692 20.2121L114.207 20.2368C115.895 20.2697 117.114 20.4962 117.855 20.9203C118.211 21.1132 118.505 21.4033 118.702 21.7569C118.9 22.1104 118.993 22.5128 118.971 22.9172V23.086C118.976 23.3873 118.94 23.688 118.864 23.9795C118.774 24.2826 118.621 24.5633 118.415 24.8029C118.167 25.0953 117.86 25.3312 117.513 25.4947C117.022 25.7145 116.504 25.8682 115.973 25.9517C115.217 26.075 114.451 26.1329 113.684 26.1246L112.84 26.0793Z" fill="white"/>
<path d="M123.113 25.9228V19.0345H119.23V16.9017H129.853V19.0345H125.962V25.9228H123.113Z" fill="white"/>
<path d="M138.194 25.9228L137.346 24.2759H131.878L131.055 25.9228H128.173L132.731 16.9017H136.391L141.221 25.9228H138.194ZM136.305 22.2378L134.559 18.8534L132.883 22.2378H136.305Z" fill="white"/>
<path d="M141.686 16.9017H144.836L150.6 22.5754V16.9017H153.392V25.9228H150.6L144.453 19.9568V25.9352H141.686V16.9017Z" fill="white"/>
<path d="M51.339 31.37V37.7848H50.5156V32.774L48.4199 36.2655H48.3087L46.2088 32.7822V37.7848H45.3401V31.37H46.3035L48.3622 34.7627L50.3962 31.37H51.339Z" fill="white"/>
<path d="M56.4982 37.2084C56.0381 37.65 55.4251 37.8966 54.7874 37.8966C54.1497 37.8966 53.5368 37.65 53.0767 37.2084C52.6327 36.748 52.3845 36.1332 52.3845 35.4935C52.3845 34.8539 52.6327 34.2391 53.0767 33.7787C53.5368 33.3371 54.1497 33.0905 54.7874 33.0905C55.4251 33.0905 56.0381 33.3371 56.4982 33.7787C56.952 34.234 57.2069 34.8507 57.2069 35.4935C57.2069 36.1364 56.952 36.7531 56.4982 37.2084ZM54.7854 37.1261C55.0014 37.1295 55.216 37.0891 55.416 37.0072C55.616 36.9254 55.7973 36.8038 55.949 36.6498C56.1007 36.4958 56.2195 36.3127 56.2983 36.1115C56.3771 35.9103 56.4143 35.6951 56.4076 35.4791C56.413 35.2635 56.3745 35.0491 56.2945 34.8488C56.2145 34.6485 56.0947 34.4665 55.9424 34.3139C55.7914 34.1616 55.6109 34.0417 55.412 33.9617C55.213 33.8817 54.9997 33.8432 54.7854 33.8487C54.5729 33.8435 54.3616 33.8821 54.1646 33.9621C53.9677 34.0422 53.7894 34.1619 53.6408 34.3139C53.4871 34.4658 53.3661 34.6475 53.2854 34.8479C53.2047 35.0483 53.1659 35.2631 53.1714 35.4791C53.1653 35.6943 53.2026 35.9085 53.2812 36.1089C53.3597 36.3093 53.4778 36.4918 53.6285 36.6455C53.7791 36.7992 53.9592 36.921 54.158 37.0036C54.3568 37.0862 54.5701 37.1278 54.7854 37.1261Z" fill="white"/>
<path d="M60.6772 33.0828C60.9858 33.078 61.2919 33.1382 61.5756 33.2595C61.8594 33.3808 62.1144 33.5605 62.3242 33.7869C62.7646 34.2467 63.0104 34.8589 63.0104 35.4956C63.0104 36.1323 62.7646 36.7444 62.3242 37.2043C62.1136 37.4293 61.8583 37.6078 61.5747 37.7283C61.2911 37.8488 60.9854 37.9088 60.6772 37.9042C60.3346 37.9201 59.9939 37.8445 59.69 37.6853C59.3861 37.5262 59.1301 37.2891 58.948 36.9984V37.7848H58.1492V31.37H58.948V33.9927C59.1299 33.7016 59.3858 33.4639 59.6896 33.304C59.9934 33.1442 60.3342 33.0678 60.6772 33.0828ZM60.5784 37.1343C60.7925 37.1393 61.0053 37.1003 61.2037 37.0195C61.402 36.9388 61.5816 36.8181 61.7313 36.6649C62.0323 36.35 62.2003 35.9312 62.2003 35.4956C62.2003 35.06 62.0323 34.6411 61.7313 34.3262C61.582 34.1723 61.4025 34.0509 61.2042 33.9694C61.0058 33.8879 60.7928 33.8482 60.5784 33.8528C60.3622 33.848 60.1472 33.8876 59.9468 33.969C59.7464 34.0504 59.5649 34.172 59.4132 34.3262C59.1141 34.6421 58.9474 35.0606 58.9474 35.4956C58.9474 35.9306 59.1141 36.3491 59.4132 36.6649C59.5646 36.8181 59.7456 36.9387 59.9453 37.0195C60.1449 37.1002 60.359 37.1392 60.5743 37.1343H60.5784Z" fill="white"/>
<path d="M64.354 32.3705C64.2829 32.3719 64.2122 32.3587 64.1464 32.3318C64.0805 32.3049 64.0209 32.2648 63.971 32.2141C63.9203 32.1659 63.8802 32.1078 63.8533 32.0432C63.8263 31.9787 63.8131 31.9093 63.8146 31.8394C63.813 31.7682 63.8261 31.6975 63.853 31.6317C63.8799 31.5658 63.9201 31.5061 63.971 31.4565C64.0201 31.4044 64.0795 31.3632 64.1454 31.3355C64.2114 31.3078 64.2825 31.2943 64.354 31.2959C64.4242 31.2947 64.4939 31.3084 64.5585 31.3361C64.6231 31.3638 64.681 31.4048 64.7286 31.4565C64.7796 31.5061 64.8198 31.5658 64.8467 31.6317C64.8736 31.6975 64.8867 31.7682 64.8851 31.8394C64.8865 31.9093 64.8734 31.9787 64.8464 32.0432C64.8195 32.1078 64.7793 32.1659 64.7286 32.2141C64.6802 32.2644 64.622 32.3042 64.5575 32.3311C64.4931 32.358 64.4238 32.3715 64.354 32.3705ZM63.9422 37.7848V33.2022H64.741V37.7848H63.9422Z" fill="white"/>
<path d="M65.968 37.7849V31.0942H66.7503V37.7849H65.968Z" fill="white"/>
<path d="M68.5416 35.8621C68.6039 36.2386 68.8052 36.578 69.1057 36.8132C69.4221 37.0467 69.8078 37.167 70.2009 37.1549C70.4613 37.1733 70.7219 37.1205 70.9547 37.0023C71.1874 36.8841 71.3837 36.7049 71.5225 36.4838L72.1978 36.8708C71.9845 37.2066 71.6855 37.4795 71.3316 37.6611C70.9776 37.8428 70.5816 37.9267 70.1844 37.9043C69.8576 37.9175 69.5316 37.8637 69.2264 37.7461C68.9213 37.6286 68.6434 37.4498 68.4099 37.2208C68.1837 36.9955 68.0062 36.7261 67.8887 36.4293C67.7711 36.1325 67.7158 35.8147 67.7264 35.4956C67.7166 35.1777 67.771 34.8611 67.8863 34.5647C68.0017 34.2683 68.1755 33.9982 68.3975 33.7705C68.6221 33.542 68.892 33.3628 69.1897 33.2445C69.4874 33.1261 69.8066 33.071 70.1268 33.0829C70.4368 33.0731 70.7452 33.1319 71.0298 33.255C71.3145 33.3782 71.5685 33.5626 71.7737 33.7952C72.1966 34.2625 72.4249 34.8738 72.4119 35.5039C72.4102 35.6238 72.4006 35.7434 72.3831 35.8621H68.5416ZM70.1268 33.8363C69.7436 33.8177 69.3676 33.9443 69.0738 34.1909C68.7799 34.4374 68.5899 34.7857 68.5416 35.1662H71.6049C71.5641 34.7826 71.3804 34.4283 71.0903 34.174C70.8198 33.9499 70.4779 33.8302 70.1268 33.8363Z" fill="white"/>
<path d="M79.6871 31.37H80.5393V37.7848H79.8517L76.5578 32.9922V37.7848H75.7056V31.37H76.3932L79.6871 36.1543V31.37Z" fill="white"/>
<path d="M84.9944 33.2023H85.7931V37.7849H84.9944V37.1261C84.8391 37.3771 84.6191 37.5817 84.3577 37.7186C84.0962 37.8555 83.8027 37.9196 83.508 37.9043C83.269 37.9148 83.0306 37.8752 82.8079 37.7879C82.5853 37.7007 82.3834 37.5678 82.2151 37.3978C81.8797 37.0191 81.7067 36.5237 81.7334 36.0185V33.2023H82.528V35.9691C82.5183 36.1269 82.5403 36.2851 82.5927 36.4343C82.645 36.5835 82.7266 36.7207 82.8328 36.8379C82.942 36.9421 83.0714 37.0229 83.213 37.0753C83.3546 37.1277 83.5054 37.1506 83.6562 37.1426C83.8337 37.1505 84.0109 37.1217 84.1767 37.058C84.3425 36.9942 84.4933 36.8968 84.6197 36.772C84.8879 36.4553 85.0196 36.0452 84.9861 35.6315L84.9944 33.2023Z" fill="white"/>
<path d="M91.9485 33.0829C92.1781 33.0759 92.4065 33.1169 92.6193 33.2034C92.832 33.2899 93.0242 33.42 93.1837 33.5852C93.5152 33.9546 93.6869 34.4401 93.6614 34.9357V37.7849H92.8626V34.9645C92.8801 34.6654 92.7829 34.371 92.5909 34.141C92.4955 34.0432 92.3805 33.9666 92.2535 33.9163C92.1265 33.8659 91.9903 33.8429 91.8538 33.8487C91.6995 33.8417 91.5456 33.8691 91.4031 33.9289C91.2607 33.9887 91.1334 34.0795 91.0304 34.1946C90.803 34.4935 90.6945 34.8661 90.7257 35.2404V37.789H89.9269V34.9686C89.9423 34.6719 89.8503 34.3795 89.6675 34.1451C89.5772 34.0475 89.4667 33.9708 89.3437 33.9203C89.2206 33.8698 89.0881 33.8468 88.9553 33.8528C88.8012 33.8507 88.6484 33.8807 88.5066 33.941C88.3648 34.0012 88.2372 34.0904 88.1318 34.2028C87.8892 34.4934 87.7695 34.8671 87.7983 35.2445V37.7931H86.9995V33.2023H87.7983V33.8158C87.9399 33.5827 88.1414 33.3918 88.3818 33.2629C88.6222 33.134 88.8927 33.0719 89.1652 33.0829C89.4415 33.0675 89.7163 33.1334 89.9555 33.2724C90.1948 33.4114 90.3881 33.6175 90.5116 33.8652C90.6559 33.6152 90.8665 33.4099 91.12 33.2719C91.3736 33.1338 91.6602 33.0684 91.9485 33.0829Z" fill="white"/>
<path d="M97.3134 33.0828C97.6221 33.0775 97.9283 33.1375 98.2121 33.2588C98.496 33.3801 98.7509 33.5601 98.9604 33.7869C99.4008 34.2467 99.6466 34.8589 99.6466 35.4956C99.6466 36.1323 99.4008 36.7444 98.9604 37.2043C98.7501 37.4297 98.4949 37.6085 98.2112 37.729C97.9275 37.8496 97.6216 37.9093 97.3134 37.9042C96.9702 37.9199 96.629 37.8444 96.3245 37.6853C96.02 37.5261 95.7631 37.2891 95.58 36.9984V37.7848H94.7812V31.37H95.5718V33.9927C95.7554 33.7003 96.0134 33.4619 96.3194 33.302C96.6255 33.1421 96.9685 33.0665 97.3134 33.0828ZM97.2105 37.1343C97.4252 37.1394 97.6387 37.1004 97.8377 37.0197C98.0367 36.9389 98.217 36.8182 98.3675 36.6649C98.6666 36.3491 98.8333 35.9306 98.8333 35.4956C98.8333 35.0606 98.6666 34.6421 98.3675 34.3262C98.0591 34.0208 97.6425 33.8494 97.2084 33.8494C96.7743 33.8494 96.3578 34.0208 96.0494 34.3262C95.7484 34.6411 95.5804 35.06 95.5804 35.4956C95.5804 35.9312 95.7484 36.35 96.0494 36.6649C96.2011 36.8199 96.3834 36.9417 96.5847 37.0225C96.786 37.1033 97.0019 37.1414 97.2187 37.1343H97.2105Z" fill="white"/>
<path d="M101.143 35.8621C101.203 36.2391 101.405 36.5791 101.707 36.8132C102.023 37.0467 102.409 37.167 102.802 37.1549C103.062 37.1733 103.323 37.1205 103.556 37.0023C103.788 36.8841 103.985 36.7049 104.124 36.4838L104.799 36.8708C104.586 37.2066 104.286 37.4795 103.933 37.6611C103.579 37.8428 103.183 37.9267 102.785 37.9043C102.459 37.918 102.132 37.8644 101.827 37.7468C101.522 37.6292 101.244 37.4502 101.011 37.2208C100.785 36.9955 100.607 36.7261 100.49 36.4293C100.372 36.1325 100.317 35.8147 100.327 35.4956C100.318 35.1777 100.372 34.8611 100.487 34.5647C100.603 34.2683 100.777 33.9982 100.999 33.7705C101.223 33.542 101.493 33.3628 101.791 33.2445C102.088 33.1261 102.408 33.071 102.728 33.0829C103.038 33.0737 103.346 33.1327 103.631 33.2558C103.915 33.3789 104.169 33.563 104.375 33.7952C104.798 34.2625 105.026 34.8738 105.013 35.5039C105.011 35.6238 105.002 35.7434 104.984 35.8621H101.143ZM102.728 33.8363C102.345 33.8177 101.969 33.9443 101.675 34.1909C101.381 34.4374 101.191 34.7857 101.143 35.1662H104.218C104.177 34.7826 103.994 34.4283 103.704 34.174C103.43 33.9471 103.083 33.8272 102.728 33.8363Z" fill="white"/>
<path d="M106.726 33.9557C106.846 33.683 107.048 33.4545 107.304 33.3018C107.56 33.1491 107.857 33.0798 108.154 33.1034V33.9269C107.791 33.8994 107.431 34.0097 107.146 34.2357C106.998 34.3741 106.885 34.5444 106.813 34.7335C106.742 34.9226 106.715 35.1256 106.734 35.3268V37.756H105.935V33.2022H106.734L106.726 33.9557Z" fill="white"/>
<path d="M113.635 31.37C114.181 31.37 114.704 31.5869 115.09 31.973C115.476 32.359 115.693 32.8827 115.693 33.4287C115.693 33.9747 115.476 34.4983 115.09 34.8844C114.704 35.2704 114.181 35.4873 113.635 35.4873H112.161V37.7766H111.308V31.37H113.635ZM113.635 34.6968C113.799 34.7016 113.962 34.6719 114.114 34.6095C114.266 34.547 114.403 34.4533 114.516 34.3345C114.738 34.086 114.861 33.7642 114.861 33.4307C114.861 33.0972 114.738 32.7754 114.516 32.527C114.402 32.4095 114.265 32.317 114.113 32.2553C113.961 32.1936 113.798 32.1642 113.635 32.1688H112.161V34.6968H113.635Z" fill="white"/>
<path d="M120.152 37.2084C119.755 37.611 119.23 37.863 118.667 37.9216C118.105 37.9801 117.539 37.8415 117.068 37.5294C116.596 37.2173 116.247 36.751 116.081 36.2103C115.915 35.6696 115.941 35.088 116.156 34.5648C116.372 34.0416 116.762 33.6094 117.26 33.3419C117.758 33.0743 118.334 32.9881 118.889 33.098C119.444 33.2079 119.943 33.5071 120.302 33.9444C120.661 34.3817 120.857 34.93 120.856 35.4956C120.862 35.814 120.802 36.1301 120.681 36.4245C120.56 36.719 120.38 36.9858 120.152 37.2084ZM118.439 37.1261C118.712 37.1313 118.983 37.0684 119.225 36.9433C119.468 36.8182 119.676 36.6347 119.83 36.4093C119.984 36.1839 120.08 35.9237 120.108 35.6521C120.137 35.3805 120.098 35.1061 119.994 34.8535C119.89 34.6009 119.725 34.3781 119.514 34.2051C119.303 34.0321 119.052 33.9144 118.783 33.8625C118.515 33.8106 118.239 33.8262 117.978 33.9079C117.717 33.9896 117.481 34.1348 117.291 34.3304C117.138 34.483 117.019 34.665 116.939 34.8653C116.859 35.0656 116.82 35.28 116.825 35.4956C116.819 35.7109 116.856 35.9254 116.934 36.126C117.012 36.3267 117.13 36.5094 117.281 36.6633C117.432 36.8171 117.612 36.9389 117.811 37.0213C118.01 37.1036 118.224 37.1449 118.439 37.1426V37.1261Z" fill="white"/>
<path d="M122.598 33.9557C122.719 33.6834 122.921 33.4552 123.177 33.3026C123.433 33.15 123.73 33.0804 124.027 33.1034V33.9269C123.665 33.8997 123.306 34.01 123.022 34.2357C122.874 34.3736 122.76 34.5438 122.688 34.7331C122.617 34.9223 122.59 35.1255 122.61 35.3268V37.7561H121.812V33.2023H122.61L122.598 33.9557Z" fill="white"/>
<path d="M127.411 33.9557H126.176V36.4261C126.158 36.5975 126.205 36.7695 126.308 36.9078C126.363 36.9593 126.428 36.999 126.498 37.0245C126.569 37.05 126.644 37.0607 126.72 37.0561C126.905 37.0561 127.131 37.0561 127.399 37.0561V37.7684C126.884 37.8867 126.344 37.8272 125.867 37.5995C125.692 37.465 125.555 37.2872 125.47 37.0835C125.385 36.8799 125.354 36.6575 125.381 36.4385V33.968H124.476V33.1981H125.381V32.1523L126.18 31.9176V33.1981H127.415L127.411 33.9557Z" fill="white"/>
<path d="M131.92 33.2023H132.718V37.7849H131.92V36.9985C131.736 37.2889 131.479 37.5257 131.175 37.6848C130.87 37.8439 130.529 37.9196 130.186 37.9043C129.878 37.9094 129.572 37.8497 129.288 37.7291C129.005 37.6085 128.749 37.4298 128.539 37.2044C128.099 36.7445 127.853 36.1324 127.853 35.4957C127.853 34.8589 128.099 34.2468 128.539 33.787C128.749 33.5602 129.004 33.3802 129.287 33.2589C129.571 33.1376 129.878 33.0776 130.186 33.0829C130.53 33.0685 130.871 33.145 131.175 33.3048C131.48 33.4646 131.736 33.7019 131.92 33.9928V33.2023ZM130.273 37.1344C130.488 37.1401 130.702 37.1013 130.902 37.0206C131.102 36.9398 131.283 36.8188 131.434 36.665C131.735 36.3501 131.903 35.9313 131.903 35.4957C131.903 35.06 131.735 34.6412 131.434 34.3263C131.125 34.0208 130.709 33.8495 130.275 33.8495C129.841 33.8495 129.424 34.0208 129.116 34.3263C128.817 34.6422 128.65 35.0606 128.65 35.4957C128.65 35.9307 128.817 36.3491 129.116 36.665C129.268 36.8203 129.451 36.9423 129.653 37.0231C129.855 37.1039 130.072 37.1418 130.289 37.1344H130.273Z" fill="white"/>
<path d="M136.457 33.0828C136.766 33.0775 137.072 33.1375 137.356 33.2588C137.64 33.3801 137.895 33.5601 138.104 33.7869C138.544 34.2467 138.79 34.8589 138.79 35.4956C138.79 36.1323 138.544 36.7444 138.104 37.2043C137.894 37.4297 137.638 37.6084 137.355 37.729C137.071 37.8496 136.765 37.9093 136.457 37.9042C136.114 37.9195 135.773 37.8438 135.468 37.6847C135.164 37.5256 134.907 37.2888 134.724 36.9984V37.7848H133.925V31.37H134.724V33.9927C134.907 33.7018 135.164 33.4645 135.468 33.3047C135.772 33.1449 136.114 33.0684 136.457 33.0828ZM136.354 37.1343C136.569 37.1394 136.782 37.1004 136.981 37.0197C137.18 36.9389 137.361 36.8182 137.511 36.6649C137.81 36.3491 137.977 35.9306 137.977 35.4956C137.977 35.0606 137.81 34.6421 137.511 34.3262C137.203 34.0208 136.786 33.8494 136.352 33.8494C135.918 33.8494 135.501 34.0208 135.193 34.3262C134.892 34.6411 134.724 35.06 134.724 35.4956C134.724 35.9312 134.892 36.35 135.193 36.6649C135.344 36.8187 135.525 36.9397 135.725 37.0205C135.924 37.1012 136.139 37.14 136.354 37.1343Z" fill="white"/>
<path d="M140.13 32.3705C140.059 32.371 139.99 32.3577 139.925 32.3313C139.859 32.3049 139.8 32.266 139.75 32.2166C139.7 32.1673 139.66 32.1086 139.633 32.0439C139.605 31.9792 139.591 31.9097 139.59 31.8394C139.59 31.7684 139.603 31.6979 139.63 31.6322C139.657 31.5665 139.697 31.5067 139.747 31.4565C139.796 31.4055 139.855 31.3651 139.921 31.3374C139.986 31.3098 140.057 31.2955 140.128 31.2955C140.199 31.2955 140.269 31.3098 140.334 31.3374C140.4 31.3651 140.459 31.4055 140.509 31.4565C140.559 31.5067 140.598 31.5665 140.625 31.6322C140.652 31.6979 140.666 31.7684 140.665 31.8394C140.666 31.9092 140.652 31.9784 140.625 32.0428C140.598 32.1072 140.559 32.1655 140.509 32.214C140.459 32.2641 140.4 32.3037 140.335 32.3306C140.27 32.3575 140.2 32.371 140.13 32.3705ZM139.718 37.7848V33.2022H140.517V37.7848H139.718Z" fill="white"/>
<path d="M141.744 37.7849V31.0942H142.542V37.7849H141.744Z" fill="white"/>
<path d="M144.157 32.3706C144.085 32.3715 144.014 32.3582 143.947 32.3313C143.881 32.3045 143.82 32.2646 143.77 32.2141C143.719 32.1655 143.68 32.1073 143.653 32.0429C143.626 31.9785 143.612 31.9092 143.613 31.8394C143.612 31.7684 143.626 31.698 143.653 31.6323C143.68 31.5665 143.719 31.5068 143.77 31.4565C143.82 31.4047 143.88 31.3638 143.946 31.3361C144.013 31.3085 144.084 31.2948 144.157 31.296C144.227 31.2953 144.296 31.3092 144.361 31.3369C144.425 31.3645 144.483 31.4053 144.531 31.4565C144.581 31.5068 144.621 31.5665 144.648 31.6323C144.675 31.698 144.688 31.7684 144.688 31.8394C144.687 31.98 144.63 32.1145 144.531 32.2138C144.432 32.3132 144.297 32.3695 144.157 32.3706ZM143.745 37.7849V33.2023H144.568V37.7849H143.745Z" fill="white"/>
<path d="M148.274 33.9557H147.039V36.4261C147.023 36.5974 147.069 36.7686 147.17 36.9078C147.225 36.9591 147.29 36.9987 147.361 37.0242C147.432 37.0496 147.507 37.0605 147.582 37.0561C147.766 37.0561 147.992 37.0561 148.261 37.0561V37.7684C147.746 37.8867 147.207 37.8272 146.73 37.5995C146.555 37.4645 146.419 37.2865 146.334 37.083C146.249 36.8796 146.218 36.6575 146.244 36.4385V33.968H145.338V33.1981H146.244V32.1523L147.043 31.9176V33.1981H148.278L148.274 33.9557Z" fill="white"/>
<path d="M152.515 33.2023H153.367L151.494 38.0731C151.336 38.5392 151.051 38.9516 150.67 39.263C150.326 39.5332 149.891 39.6614 149.455 39.6212V38.8966C150.02 38.9377 150.431 38.6289 150.691 37.9619L150.773 37.789L148.776 33.2229H149.628L151.185 36.8173L152.515 33.2023Z" fill="white"/>
<path d="M45.3401 12.0762V2.73804H49.4945L52.7184 8.54762L55.9587 2.73804H59.9608V12.0762H57.0786V5.61195L53.4018 12.0762H51.8331L48.1563 5.61195V12.0762H45.3401Z" fill="white"/>
<path d="M61.3113 2.73804H64.5763L70.5341 8.61349V2.73804H73.4162V12.0762H70.5341L64.1975 5.90015V12.0762H61.3154L61.3113 2.73804Z" fill="white"/>
<path d="M81.7788 8.96346H77.7026V12.0762H74.7793V2.73804H81.7788C84.6856 2.73804 86.1377 3.75091 86.1349 5.77664V5.90015C86.1349 7.94236 84.6829 8.96346 81.7788 8.96346ZM77.7026 4.84612V6.85538H81.7294C82.6352 6.85538 83.084 6.53011 83.084 5.87545V5.8384C83.084 5.17962 82.6352 4.84612 81.7294 4.84612H77.7026Z" fill="white"/>
<path d="M34.9767 4.50438L31.4029 0.988161C30.7566 0.354263 29.8872 -0.000571929 28.9819 6.9198e-07H27.335L31.127 3.73443C31.4894 4.08905 31.7773 4.51245 31.9738 4.97979C32.1704 5.44713 32.2716 5.949 32.2717 6.45599V38.3036C32.273 38.6714 32.1617 39.0308 31.9527 39.3333C31.7436 39.6359 31.4468 39.8671 31.1023 39.9959H33.5275C33.8502 39.9997 34.1704 39.9395 34.4697 39.8188C34.769 39.698 35.0414 39.5191 35.2711 39.2925C35.5008 39.0658 35.6833 38.7959 35.8081 38.4982C35.9328 38.2006 35.9973 37.8811 35.9979 37.5584V6.94185C35.9975 6.48819 35.9071 6.0391 35.7318 5.62068C35.5565 5.20225 35.2998 4.82281 34.9767 4.50438Z" fill="#009C4D"/>
<path d="M29.1507 4.50438L25.5769 0.988161C24.9305 0.354263 24.0612 -0.000571929 23.1559 6.9198e-07H6.22534L24.5928 18.281C24.8265 18.5133 25.0119 18.7894 25.1384 19.0936C25.265 19.3978 25.3301 19.7241 25.3301 20.0535C25.3301 20.383 25.265 20.7092 25.1384 21.0134C25.0119 21.3176 24.8265 21.5938 24.5928 21.826L6.33652 39.9959H27.7055C28.0283 39.9997 28.3485 39.9395 28.6478 39.8188C28.9471 39.698 29.2195 39.5191 29.4492 39.2925C29.6789 39.0658 29.8614 38.7959 29.9862 38.4982C30.1109 38.2006 30.1754 37.8811 30.176 37.5584V6.94185C30.1751 6.4879 30.084 6.03864 29.908 5.6202C29.732 5.20176 29.4746 4.82247 29.1507 4.50438Z" fill="#89C540"/>
<path d="M0.0370672 37.8177L0 2.23565C0.00518474 1.80867 0.135542 1.3926 0.374893 1.03897C0.614245 0.685349 0.952081 0.409727 1.34656 0.246239C1.74103 0.0827507 2.17479 0.03858 2.59412 0.119218C3.01345 0.199855 3.39991 0.401757 3.70561 0.69989L21.5996 18.5115C21.8026 18.7129 21.9638 18.9524 22.0738 19.2164C22.1837 19.4803 22.2404 19.7634 22.2404 20.0493C22.2404 20.3353 22.1837 20.6184 22.0738 20.8823C21.9638 21.1463 21.8026 21.3858 21.5996 21.5872L3.74268 39.3576C3.43601 39.6541 3.04933 39.8543 2.63026 39.9338C2.21119 40.0132 1.77805 39.9683 1.38418 39.8046C0.990302 39.641 0.652901 39.3656 0.413544 39.0126C0.174187 38.6596 0.0433185 38.2442 0.0370672 37.8177Z" fill="#F3EA00"/>
</g>
<defs>
<clipPath id="clip0_227:1162">
<rect width="153.367" height="40" fill="white"/>
</clipPath>
</defs>
</svg>
